<svg width="402" height="185" viewBox="0 0 402 185" fill="none" xmlns="http://www.w3.org/2000/svg">
<path d="M124.401 112.341C124.145 112.049 123.872 111.772 123.581 111.514C123.319 111.227 123.042 110.954 122.751 110.697C122.493 110.407 122.219 110.131 121.931 109.871C121.672 109.581 121.395 109.308 121.101 109.054C120.841 108.765 120.561 108.486 120.281 108.227C120.028 107.935 119.754 107.662 119.461 107.41C119.199 107.119 118.922 106.843 118.631 106.583C118.378 106.291 118.104 106.018 117.811 105.766C117.549 105.479 117.272 105.206 116.981 104.949C116.134 104.019 115.146 103.229 114.051 102.608V20.2773C114.051 19.8389 113.841 19.6197 113.841 19.1814C113.895 18.7343 113.819 18.2812 113.621 17.8763C113.621 17.6571 113.411 17.2188 113.411 16.9996C113.291 16.5517 113.14 16.1124 112.961 15.6845C112.73 15.4439 112.579 15.1375 112.531 14.8078C112.279 14.4143 111.984 14.0501 111.651 13.7219C111.421 13.5027 111.211 13.0743 110.991 12.8452L110.111 11.9685C110.111 11.839 109.941 11.6995 109.751 11.6198L109.321 11.1815H109.271C109.271 11.042 109.111 10.9125 108.921 10.8228L108.481 10.3944C108.481 10.2649 108.311 10.1254 108.121 10.0358L107.691 9.60737C107.691 9.4679 107.521 9.33838 107.331 9.24872L106.901 8.81038C106.901 8.68087 106.731 8.54139 106.541 8.45173L106.101 8.02333V7.97351C106.101 7.844 105.931 7.7145 105.741 7.62483L105.311 7.18648H105.261C105.261 7.05696 105.101 6.91749 104.911 6.82783L104.471 6.39943V6.34963C104.471 6.22011 104.301 6.09059 104.111 6.00093L103.681 5.56258H103.631C103.631 5.4231 103.471 5.29359 103.281 5.20392L102.841 4.77554C102.841 4.64603 102.671 4.50655 102.481 4.42685L102.001 3.94865C102.001 3.72947 101.571 3.51029 101.341 3.51029C101.342 3.48199 101.338 3.45371 101.328 3.42717C101.318 3.40063 101.303 3.37637 101.283 3.35588C101.263 3.33538 101.24 3.31908 101.214 3.30794C101.187 3.29681 101.159 3.29108 101.131 3.29112C100.691 3.0819 100.461 2.85276 100.031 2.63358C99.6526 2.36028 99.2888 2.06767 98.9409 1.75689C98.7209 1.75689 98.2809 1.54767 98.0609 1.54767C97.6209 1.32849 96.9609 1.3285 96.7409 1.09936C96.362 1.1301 95.9818 1.05778 95.6409 0.890137H91.9209C91.6598 1.05714 91.3495 1.13091 91.0409 1.09936C90.3809 1.3285 89.9509 1.32849 89.7209 1.54767C89.2909 1.54767 89.0709 1.75689 88.8409 2.2052C88.3714 2.2161 87.9156 2.36514 87.5309 2.63358C87.3209 2.85276 86.8709 3.0819 86.6509 3.29112C86.3587 3.61035 85.9802 3.83869 85.5609 3.94865C85.397 4.27891 85.1732 4.57615 84.9009 4.82536C84.6809 5.04453 84.6809 5.25374 84.4709 5.25374L3.00089 105.487C1.07436 107.792 0.112757 110.747 0.315728 113.739C0.518699 116.732 1.87065 119.531 4.09089 121.557C4.34792 121.858 4.62883 122.137 4.93089 122.393C5.18199 122.693 5.45979 122.97 5.76088 123.22C6.01792 123.521 6.29883 123.801 6.60088 124.057C6.85444 124.358 7.13202 124.638 7.43089 124.894C7.68804 125.192 7.96896 125.468 8.27089 125.721C8.52445 126.022 8.80202 126.302 9.10088 126.558C9.35804 126.856 9.63896 127.132 9.94088 127.385C10.1944 127.685 10.472 127.965 10.7709 128.222C11.028 128.519 11.309 128.796 11.6109 129.048C12.128 129.634 12.7044 130.165 13.3309 130.632C15.3904 132.416 18.0537 133.353 20.7809 133.253H81.5009V141.532C81.4829 143.217 81.8229 144.887 82.4985 146.432C83.174 147.978 84.17 149.363 85.4209 150.498C85.6809 150.777 85.9509 151.046 86.2209 151.295C86.4757 151.579 86.7461 151.848 87.0309 152.102C87.2909 152.381 87.5609 152.65 87.8409 152.899C88.0957 153.183 88.3661 153.452 88.6509 153.706C88.9109 153.985 89.1809 154.254 89.4609 154.513C89.7131 154.799 89.9837 155.068 90.2709 155.32C90.5209 155.599 90.7909 155.868 91.0709 156.127C91.3257 156.41 91.5961 156.68 91.8809 156.934C92.1309 157.203 92.4009 157.472 92.6809 157.731C94.3326 159.51 96.4839 160.752 98.8544 161.296C101.225 161.839 103.705 161.659 105.971 160.778C108.237 159.898 110.185 158.358 111.56 156.359C112.935 154.36 113.674 151.995 113.681 149.571V133.213H115.881C117.482 133.239 119.072 132.948 120.559 132.356C122.046 131.764 123.4 130.884 124.542 129.766C125.684 128.647 126.591 127.314 127.21 125.843C127.83 124.372 128.15 122.793 128.151 121.198C128.175 119.544 127.854 117.902 127.209 116.378C126.563 114.853 125.607 113.479 124.401 112.341ZM81.4809 65.5172V100.825H52.9209L81.4809 65.5172Z" fill="#6987F1"/>
<path opacity="0.1" d="M124.401 112.341C124.145 112.049 123.872 111.772 123.581 111.514C123.319 111.227 123.042 110.954 122.751 110.697C122.493 110.407 122.219 110.131 121.931 109.871C121.672 109.581 121.395 109.308 121.101 109.054C120.841 108.765 120.561 108.486 120.281 108.227C120.028 107.935 119.754 107.662 119.461 107.41C119.199 107.119 118.922 106.843 118.631 106.583C118.378 106.291 118.104 106.018 117.811 105.766C117.549 105.479 117.272 105.206 116.981 104.949C116.134 104.019 115.146 103.229 114.051 102.608V20.2773C114.051 19.8389 113.841 19.6197 113.841 19.1814C113.895 18.7343 113.819 18.2812 113.621 17.8763C113.621 17.6571 113.411 17.2188 113.411 16.9996C113.291 16.5517 113.14 16.1124 112.961 15.6845C112.73 15.4439 112.579 15.1375 112.531 14.8078C112.279 14.4143 111.984 14.0501 111.651 13.7219C111.421 13.5027 111.211 13.0743 110.991 12.8452L110.111 11.9685C110.111 11.839 109.941 11.6995 109.751 11.6198L109.321 11.1815H109.271C109.271 11.042 109.111 10.9125 108.921 10.8228L108.481 10.3944C108.481 10.2649 108.311 10.1254 108.121 10.0358L107.691 9.60737C107.691 9.4679 107.521 9.33838 107.331 9.24872L106.901 8.81038C106.901 8.68087 106.731 8.54139 106.541 8.45173L106.101 8.02333V7.97351C106.101 7.844 105.931 7.7145 105.741 7.62483L105.311 7.18648H105.261C105.261 7.05696 105.101 6.91749 104.911 6.82783L104.471 6.39943V6.34963C104.471 6.22011 104.301 6.09059 104.111 6.00093L103.681 5.56258H103.631C103.631 5.4231 103.471 5.29359 103.281 5.20392L102.841 4.77554C102.841 4.64603 102.671 4.50655 102.481 4.42685L102.001 3.94865C102.001 3.72947 101.571 3.51029 101.341 3.51029C101.342 3.48199 101.338 3.45371 101.328 3.42717C101.318 3.40063 101.303 3.37637 101.283 3.35588C101.263 3.33538 101.24 3.31908 101.214 3.30794C101.187 3.29681 101.159 3.29108 101.131 3.29112C100.691 3.0819 100.461 2.85276 100.031 2.63358C99.6526 2.36028 99.2888 2.06767 98.9409 1.75689C98.7209 1.75689 98.2809 1.54767 98.0609 1.54767C97.6209 1.32849 96.9609 1.3285 96.7409 1.09936C96.362 1.1301 95.9818 1.05778 95.6409 0.890137H91.9209C91.6598 1.05714 91.3495 1.13091 91.0409 1.09936C90.3809 1.3285 89.9509 1.32849 89.7209 1.54767C89.2909 1.54767 89.0709 1.75689 88.8409 2.2052C88.3714 2.2161 87.9156 2.36514 87.5309 2.63358C87.3209 2.85276 86.8709 3.0819 86.6509 3.29112C86.3587 3.61035 85.9802 3.83869 85.5609 3.94865C85.397 4.27891 85.1732 4.57615 84.9009 4.82536C84.6809 5.04453 84.6809 5.25374 84.4709 5.25374L3.00089 105.487C1.07436 107.792 0.112757 110.747 0.315728 113.739C0.518699 116.732 1.87065 119.531 4.09089 121.557C4.34792 121.858 4.62883 122.137 4.93089 122.393C5.18199 122.693 5.45979 122.97 5.76088 123.22C6.01792 123.521 6.29883 123.801 6.60088 124.057C6.85444 124.358 7.13202 124.638 7.43089 124.894C7.68804 125.192 7.96896 125.468 8.27089 125.721C8.52445 126.022 8.80202 126.302 9.10088 126.558C9.35804 126.856 9.63896 127.132 9.94088 127.385C10.1944 127.685 10.472 127.965 10.7709 128.222C11.028 128.519 11.309 128.796 11.6109 129.048C12.128 129.634 12.7044 130.165 13.3309 130.632C15.3904 132.416 18.0537 133.353 20.7809 133.253H81.5009V141.532C81.4829 143.217 81.8229 144.887 82.4985 146.432C83.174 147.978 84.17 149.363 85.4209 150.498C85.6809 150.777 85.9509 151.046 86.2209 151.295C86.4757 151.579 86.7461 151.848 87.0309 152.102C87.2909 152.381 87.5609 152.65 87.8409 152.899C88.0957 153.183 88.3661 153.452 88.6509 153.706C88.9109 153.985 89.1809 154.254 89.4609 154.513C89.7131 154.799 89.9837 155.068 90.2709 155.32C90.5209 155.599 90.7909 155.868 91.0709 156.127C91.3257 156.41 91.5961 156.68 91.8809 156.934C92.1309 157.203 92.4009 157.472 92.6809 157.731C94.3326 159.51 96.4839 160.752 98.8544 161.296C101.225 161.839 103.705 161.659 105.971 160.778C108.237 159.898 110.185 158.358 111.56 156.359C112.935 154.36 113.674 151.995 113.681 149.571V133.213H115.881C117.482 133.239 119.072 132.948 120.559 132.356C122.046 131.764 123.4 130.884 124.542 129.766C125.684 128.647 126.591 127.314 127.21 125.843C127.83 124.372 128.15 122.793 128.151 121.198C128.175 119.544 127.854 117.902 127.209 116.378C126.563 114.853 125.607 113.479 124.401 112.341ZM81.4809 65.5172V100.825H52.9209L81.4809 65.5172Z" fill="black"/>
<path d="M120.062 112.869C120.06 114.465 119.74 116.045 119.12 117.517C118.5 118.988 117.592 120.322 116.449 121.44C115.306 122.559 113.951 123.439 112.463 124.03C110.975 124.622 109.383 124.912 107.782 124.884H105.592V141.492C105.592 144.678 104.321 147.734 102.059 149.987C99.7976 152.241 96.73 153.507 93.5315 153.507C90.333 153.507 87.2655 152.241 85.0038 149.987C82.7421 147.734 81.4715 144.678 81.4715 141.492V124.884H12.4015C9.69084 124.976 7.0462 124.039 5.00154 122.264C3.73471 121.315 2.67402 120.12 1.88352 118.752C1.09301 117.383 0.589092 115.869 0.402175 114.301C0.215257 112.733 0.349222 111.144 0.795981 109.629C1.24274 108.114 1.99302 106.705 3.00154 105.487L84.1015 4.9549C84.3215 4.9549 84.3215 4.7457 84.5415 4.52652C84.8139 4.27731 85.0377 3.98008 85.2015 3.64981C85.6223 3.53651 86.0032 3.30885 86.3015 2.99228C86.5115 2.7731 86.9515 2.55394 87.1715 2.33476C87.5573 2.05981 88.0173 1.90705 88.4915 1.89641C88.7115 1.46802 88.9315 1.24883 89.3715 1.24883C89.5815 1.02966 90.0215 1.02966 90.6815 0.810486C90.9916 0.843283 91.3034 0.765636 91.5615 0.591309H95.2915C95.6254 0.76932 96.0045 0.845544 96.3815 0.810486C96.6015 1.02966 97.2615 1.02966 97.7015 1.24883C97.9215 1.24883 98.3615 1.46801 98.5815 1.46801C99.0115 1.8964 99.4515 2.11559 99.6715 2.33476C100.112 2.55394 100.332 2.7731 100.772 2.99228C100.83 2.99228 100.886 3.01537 100.927 3.05648C100.968 3.09758 100.992 3.15333 100.992 3.21146C101.212 3.21146 101.652 3.43064 101.652 3.64981L102.522 4.52652C102.742 4.7457 102.962 5.17408 103.182 5.39326C103.517 5.72286 103.812 6.09069 104.062 6.48915C104.117 6.81877 104.27 7.12425 104.502 7.36584C104.682 7.78773 104.826 8.2244 104.932 8.67095C104.932 8.89012 105.152 9.32847 105.152 9.54764C105.35 9.95601 105.426 10.4124 105.372 10.8627C105.372 11.2911 105.592 11.5103 105.592 11.9486V100.854H107.782C111.005 100.838 114.105 102.092 116.405 104.343C118.705 106.593 120.019 109.658 120.062 112.869ZM81.4715 46.8973L37.8415 100.854H81.4715V46.8973Z" fill="#6987F1"/>
<path d="M248.333 33.1591C245.857 29.4063 242.981 25.9322 239.753 22.798C239.634 22.6677 239.507 22.5446 239.373 22.4294L239.263 22.3198C239.163 22.2102 239.063 22.1006 238.953 22.001C238.673 21.7021 238.373 21.4232 238.083 21.1343L238.003 21.0645L237.703 20.7657C237.669 20.7267 237.632 20.6901 237.593 20.6561C237.493 20.5465 237.393 20.4369 237.283 20.3373C237.003 20.0384 236.703 19.7595 236.413 19.4705L236.333 19.4008L236.033 19.1019L235.923 18.9923C235.823 18.8827 235.723 18.7732 235.613 18.6735C235.333 18.3747 235.033 18.0957 234.743 17.8068L234.663 17.7371L234.363 17.4382C234.363 17.4382 234.293 17.3585 234.253 17.3286C234.154 17.215 234.047 17.1084 233.933 17.0098C233.663 16.7009 233.363 16.432 233.073 16.1431L232.993 16.0733C232.9 15.9663 232.8 15.8664 232.693 15.7744C232.693 15.7744 232.623 15.6947 232.583 15.6648C223.773 6.61884 212.293 0.631348 199.413 0.631348C182.083 0.631348 167.843 10.9027 158.623 24.8702C148.973 38.8178 143.943 56.9995 143.723 77.084C143.943 97.0091 148.973 115.31 158.623 129.298C161.094 132.995 163.939 136.43 167.113 139.549L167.553 139.978V140.027L168.333 140.804C168.463 140.954 168.603 141.083 168.733 141.213L169.173 141.641L169.223 141.691L170.003 142.468L170.403 142.887L170.843 143.305C170.864 143.316 170.881 143.334 170.893 143.355L171.673 144.132L172.073 144.55L172.513 144.969C172.525 144.975 172.535 144.983 172.544 144.994C172.552 145.004 172.559 145.016 172.563 145.029L173.343 145.806L173.753 146.214L174.183 146.633L174.243 146.692L175.023 147.469C183.683 156.087 194.863 161.875 207.713 161.875C224.593 161.875 239.063 151.385 248.283 137.616C257.703 123.669 262.973 105.288 262.973 85.4127C263.003 65.2784 257.753 47.1465 248.333 33.1591ZM219.803 115.719C213.443 125.104 206.203 129.258 199.413 129.258C195.234 129.157 191.191 127.764 187.843 125.273C187.533 124.874 187.233 124.456 186.933 124.018C180.793 114.842 176.403 100.865 176.403 85.3529C176.403 69.622 180.793 55.8637 186.933 46.4989C193.523 37.3234 200.933 32.9598 207.763 33.1691C211.722 33.1511 215.58 34.4092 218.763 36.7556C219.113 37.2238 219.453 37.6821 219.763 38.1702C225.903 47.5649 230.283 61.3232 230.283 77.0242C230.323 92.5359 225.943 106.533 219.803 115.719Z" fill="#6987F1"/>
<path opacity="0.1" d="M248.333 33.1591C245.857 29.4063 242.981 25.9322 239.753 22.798C239.634 22.6677 239.507 22.5446 239.373 22.4294L239.263 22.3198C239.163 22.2102 239.063 22.1006 238.953 22.001C238.673 21.7021 238.373 21.4232 238.083 21.1343L238.003 21.0645L237.703 20.7657C237.669 20.7267 237.632 20.6901 237.593 20.6561C237.493 20.5465 237.393 20.4369 237.283 20.3373C237.003 20.0384 236.703 19.7595 236.413 19.4705L236.333 19.4008L236.033 19.1019L235.923 18.9923C235.823 18.8827 235.723 18.7732 235.613 18.6735C235.333 18.3747 235.033 18.0957 234.743 17.8068L234.663 17.7371L234.363 17.4382C234.363 17.4382 234.293 17.3585 234.253 17.3286C234.154 17.215 234.047 17.1084 233.933 17.0098C233.663 16.7009 233.363 16.432 233.073 16.1431L232.993 16.0733C232.9 15.9663 232.8 15.8664 232.693 15.7744C232.693 15.7744 232.623 15.6947 232.583 15.6648C223.773 6.61884 212.293 0.631348 199.413 0.631348C182.083 0.631348 167.843 10.9027 158.623 24.8702C148.973 38.8178 143.943 56.9995 143.723 77.084C143.943 97.0091 148.973 115.31 158.623 129.298C161.094 132.995 163.939 136.43 167.113 139.549L167.553 139.978V140.027L168.333 140.804C168.463 140.954 168.603 141.083 168.733 141.213L169.173 141.641L169.223 141.691L170.003 142.468L170.403 142.887L170.843 143.305C170.864 143.316 170.881 143.334 170.893 143.355L171.673 144.132L172.073 144.55L172.513 144.969C172.525 144.975 172.535 144.983 172.544 144.994C172.552 145.004 172.559 145.016 172.563 145.029L173.343 145.806L173.753 146.214L174.183 146.633L174.243 146.692L175.023 147.469C183.683 156.087 194.863 161.875 207.713 161.875C224.593 161.875 239.063 151.385 248.283 137.616C257.703 123.669 262.973 105.288 262.973 85.4127C263.003 65.2784 257.753 47.1465 248.333 33.1591ZM219.803 115.719C213.443 125.104 206.203 129.258 199.413 129.258C195.234 129.157 191.191 127.764 187.843 125.273C187.533 124.874 187.233 124.456 186.933 124.018C180.793 114.842 176.403 100.865 176.403 85.3529C176.403 69.622 180.793 55.8637 186.933 46.4989C193.523 37.3234 200.933 32.9598 207.763 33.1691C211.722 33.1511 215.58 34.4092 218.763 36.7556C219.113 37.2238 219.453 37.6821 219.763 38.1702C225.903 47.5649 230.283 61.3232 230.283 77.0242C230.323 92.5359 225.943 106.533 219.803 115.719Z" fill="black"/>
<path d="M143.711 77.0439C143.931 56.9495 148.981 38.8176 158.621 24.8402C167.831 10.8926 182.081 0.591309 199.411 0.591309C216.291 0.591309 230.761 10.8627 239.971 24.8402C249.401 38.7877 254.661 56.9495 254.661 77.0439C254.661 96.969 249.401 115.28 239.971 129.258C230.761 143.016 216.291 153.507 199.411 153.507C182.081 153.507 167.831 143.016 158.621 129.258C149.001 115.28 143.931 96.9292 143.711 77.0439ZM230.321 77.0439C230.321 61.323 225.941 47.5548 219.801 38.19C213.441 29.0145 206.211 24.6509 199.411 24.8701C192.611 24.6509 185.151 29.0145 178.581 38.19C172.441 47.5847 168.051 61.3529 168.051 77.0439C168.051 92.5556 172.441 106.543 178.581 115.709C185.151 125.103 192.581 129.258 199.411 129.258C206.241 129.258 213.411 125.103 219.801 115.709C225.941 106.543 230.321 92.5357 230.321 77.0439Z" fill="#6987F1"/>
<path d="M397.712 112.341C397.452 112.052 397.172 111.773 396.892 111.514C396.622 111.225 396.342 110.956 396.062 110.697C395.792 110.408 395.522 110.13 395.242 109.871C394.972 109.582 394.692 109.303 394.412 109.054C394.142 108.765 393.872 108.486 393.592 108.227C393.322 107.938 393.042 107.659 392.762 107.41C392.492 107.121 392.212 106.842 391.942 106.583C391.684 106.296 391.41 106.023 391.122 105.766C390.852 105.477 390.572 105.208 390.292 104.949C389.445 104.016 388.452 103.226 387.352 102.608V20.2773C387.352 19.8389 387.142 19.6197 387.142 19.1814C387.196 18.7343 387.12 18.2812 386.922 17.8763C386.922 17.6571 386.712 17.2188 386.712 16.9996C386.592 16.5517 386.441 16.1124 386.262 15.6845C386.035 15.441 385.885 15.1359 385.832 14.8078C385.584 14.4119 385.288 14.0473 384.952 13.7219C384.722 13.5027 384.512 13.0743 384.292 12.8452L383.412 11.9685C383.412 11.839 383.242 11.6995 383.052 11.6198L382.622 11.1815H382.572C382.572 11.042 382.412 10.9125 382.222 10.8228L381.782 10.3944C381.782 10.2649 381.612 10.1254 381.422 10.0358L380.992 9.60737C380.992 9.4679 380.822 9.33838 380.632 9.24872L380.202 8.81038C380.202 8.68087 380.032 8.54139 379.842 8.45173L379.402 8.02333V7.97351C379.402 7.844 379.232 7.7145 379.042 7.62483L378.612 7.18648H378.562C378.562 7.05696 378.402 6.91749 378.212 6.82783L377.772 6.39943V6.34963C377.772 6.22011 377.602 6.09059 377.412 6.00093L376.982 5.56258H376.932C376.932 5.4231 376.772 5.29359 376.582 5.20392L376.142 4.77554C376.142 4.64603 375.972 4.50655 375.782 4.42685L375.302 3.94865C375.302 3.72947 374.872 3.51029 374.642 3.51029C374.642 3.48151 374.636 3.45302 374.625 3.42643C374.614 3.39983 374.598 3.37566 374.578 3.35531C374.557 3.33496 374.533 3.31882 374.506 3.30781C374.48 3.29679 374.451 3.29112 374.422 3.29112C373.992 3.0819 373.762 2.85276 373.332 2.63358C372.954 2.36028 372.59 2.06767 372.242 1.75689C372.022 1.75689 371.582 1.54767 371.362 1.54767C370.922 1.32849 370.272 1.3285 370.042 1.09936C369.663 1.13112 369.283 1.05875 368.942 0.890137H365.222C364.961 1.05714 364.651 1.13091 364.342 1.09936C363.682 1.3285 363.252 1.32849 363.022 1.54767C362.592 1.54767 362.372 1.75689 362.142 2.2052C361.673 2.21727 361.217 2.36621 360.832 2.63358C360.622 2.85276 360.172 3.0819 359.962 3.29112C359.664 3.60768 359.283 3.83535 358.862 3.94865C358.695 4.27686 358.472 4.57354 358.202 4.82536C357.982 5.04453 357.982 5.25374 357.772 5.25374L276.282 105.487C274.356 107.792 273.394 110.747 273.597 113.739C273.8 116.732 275.152 119.531 277.372 121.557C277.629 121.858 277.91 122.137 278.212 122.393C278.463 122.693 278.741 122.97 279.042 123.22C279.299 123.521 279.58 123.801 279.882 124.057C280.72 124.886 281.554 125.719 282.382 126.558C282.945 127.106 283.502 127.66 284.052 128.222C284.309 128.519 284.59 128.796 284.892 129.048C285.409 129.634 285.986 130.165 286.612 130.632C288.672 132.416 291.335 133.353 294.062 133.253H354.782V141.532C354.764 143.217 355.104 144.887 355.78 146.432C356.455 147.978 357.451 149.363 358.702 150.498C358.962 150.787 359.242 151.056 359.512 151.305C359.762 151.584 360.032 151.843 360.312 152.102C360.57 152.386 360.844 152.655 361.132 152.909C361.392 153.188 361.652 153.447 361.932 153.706C362.192 153.995 362.472 154.264 362.752 154.523C363.012 154.802 363.272 155.071 363.552 155.32C363.812 155.609 364.092 155.878 364.372 156.137C364.632 156.416 364.892 156.685 365.172 156.934C365.427 157.221 365.697 157.493 365.982 157.751C367.634 159.53 369.787 160.773 372.158 161.316C374.53 161.859 377.01 161.678 379.277 160.796C381.544 159.915 383.491 158.373 384.865 156.373C386.24 154.372 386.977 152.006 386.982 149.581V133.213H389.182C390.784 133.241 392.376 132.95 393.865 132.359C395.353 131.768 396.709 130.888 397.853 129.77C398.997 128.651 399.906 127.318 400.527 125.846C401.148 124.375 401.47 122.794 401.472 121.198C401.495 119.543 401.173 117.901 400.525 116.376C399.878 114.852 398.92 113.478 397.712 112.341ZM354.782 65.5172V100.825H326.222L354.782 65.5172Z" fill="#6987F1"/>
<path opacity="0.1" d="M397.712 112.341C397.452 112.052 397.172 111.773 396.892 111.514C396.622 111.225 396.342 110.956 396.062 110.697C395.792 110.408 395.522 110.13 395.242 109.871C394.972 109.582 394.692 109.303 394.412 109.054C394.142 108.765 393.872 108.486 393.592 108.227C393.322 107.938 393.042 107.659 392.762 107.41C392.492 107.121 392.212 106.842 391.942 106.583C391.684 106.296 391.41 106.023 391.122 105.766C390.852 105.477 390.572 105.208 390.292 104.949C389.445 104.016 388.452 103.226 387.352 102.608V20.2773C387.352 19.8389 387.142 19.6197 387.142 19.1814C387.196 18.7343 387.12 18.2812 386.922 17.8763C386.922 17.6571 386.712 17.2188 386.712 16.9996C386.592 16.5517 386.441 16.1124 386.262 15.6845C386.035 15.441 385.885 15.1359 385.832 14.8078C385.584 14.4119 385.288 14.0473 384.952 13.7219C384.722 13.5027 384.512 13.0743 384.292 12.8452L383.412 11.9685C383.412 11.839 383.242 11.6995 383.052 11.6198L382.622 11.1815H382.572C382.572 11.042 382.412 10.9125 382.222 10.8228L381.782 10.3944C381.782 10.2649 381.612 10.1254 381.422 10.0358L380.992 9.60737C380.992 9.4679 380.822 9.33838 380.632 9.24872L380.202 8.81038C380.202 8.68087 380.032 8.54139 379.842 8.45173L379.402 8.02333V7.97351C379.402 7.844 379.232 7.7145 379.042 7.62483L378.612 7.18648H378.562C378.562 7.05696 378.402 6.91749 378.212 6.82783L377.772 6.39943V6.34963C377.772 6.22011 377.602 6.09059 377.412 6.00093L376.982 5.56258H376.932C376.932 5.4231 376.772 5.29359 376.582 5.20392L376.142 4.77554C376.142 4.64603 375.972 4.50655 375.782 4.42685L375.302 3.94865C375.302 3.72947 374.872 3.51029 374.642 3.51029C374.642 3.48151 374.636 3.45302 374.625 3.42643C374.614 3.39983 374.598 3.37566 374.578 3.35531C374.557 3.33496 374.533 3.31882 374.506 3.30781C374.48 3.29679 374.451 3.29112 374.422 3.29112C373.992 3.0819 373.762 2.85276 373.332 2.63358C372.954 2.36028 372.59 2.06767 372.242 1.75689C372.022 1.75689 371.582 1.54767 371.362 1.54767C370.922 1.32849 370.272 1.3285 370.042 1.09936C369.663 1.13112 369.283 1.05875 368.942 0.890137H365.222C364.961 1.05714 364.651 1.13091 364.342 1.09936C363.682 1.3285 363.252 1.32849 363.022 1.54767C362.592 1.54767 362.372 1.75689 362.142 2.2052C361.673 2.21727 361.217 2.36621 360.832 2.63358C360.622 2.85276 360.172 3.0819 359.962 3.29112C359.664 3.60768 359.283 3.83535 358.862 3.94865C358.695 4.27686 358.472 4.57354 358.202 4.82536C357.982 5.04453 357.982 5.25374 357.772 5.25374L276.282 105.487C274.356 107.792 273.394 110.747 273.597 113.739C273.8 116.732 275.152 119.531 277.372 121.557C277.629 121.858 277.91 122.137 278.212 122.393C278.463 122.693 278.741 122.97 279.042 123.22C279.299 123.521 279.58 123.801 279.882 124.057C280.72 124.886 281.554 125.719 282.382 126.558C282.945 127.106 283.502 127.66 284.052 128.222C284.309 128.519 284.59 128.796 284.892 129.048C285.409 129.634 285.986 130.165 286.612 130.632C288.672 132.416 291.335 133.353 294.062 133.253H354.782V141.532C354.764 143.217 355.104 144.887 355.78 146.432C356.455 147.978 357.451 149.363 358.702 150.498C358.962 150.787 359.242 151.056 359.512 151.305C359.762 151.584 360.032 151.843 360.312 152.102C360.57 152.386 360.844 152.655 361.132 152.909C361.392 153.188 361.652 153.447 361.932 153.706C362.192 153.995 362.472 154.264 362.752 154.523C363.012 154.802 363.272 155.071 363.552 155.32C363.812 155.609 364.092 155.878 364.372 156.137C364.632 156.416 364.892 156.685 365.172 156.934C365.427 157.221 365.697 157.493 365.982 157.751C367.634 159.53 369.787 160.773 372.158 161.316C374.53 161.859 377.01 161.678 379.277 160.796C381.544 159.915 383.491 158.373 384.865 156.373C386.24 154.372 386.977 152.006 386.982 149.581V133.213H389.182C390.784 133.241 392.376 132.95 393.865 132.359C395.353 131.768 396.709 130.888 397.853 129.77C398.997 128.651 399.906 127.318 400.527 125.846C401.148 124.375 401.47 122.794 401.472 121.198C401.495 119.543 401.173 117.901 400.525 116.376C399.878 114.852 398.92 113.478 397.712 112.341ZM354.782 65.5172V100.825H326.222L354.782 65.5172Z" fill="black"/>
<path d="M393.362 112.869C393.361 114.465 393.041 116.045 392.421 117.517C391.801 118.988 390.893 120.322 389.75 121.44C388.607 122.559 387.252 123.439 385.764 124.03C384.276 124.622 382.684 124.912 381.082 124.884H378.892V141.492C378.892 144.678 377.622 147.734 375.36 149.987C373.098 152.241 370.031 153.507 366.832 153.507C363.634 153.507 360.566 152.241 358.305 149.987C356.043 147.734 354.772 144.678 354.772 141.492V124.884H285.702C282.975 124.989 280.31 124.051 278.252 122.264C276.98 121.315 275.914 120.118 275.12 118.746C274.325 117.374 273.819 115.856 273.632 114.283C273.445 112.71 273.581 111.116 274.031 109.597C274.482 108.078 275.237 106.666 276.252 105.447L357.402 4.9549C357.622 4.9549 357.622 4.7457 357.842 4.52652C358.115 4.27731 358.339 3.98008 358.502 3.64981C358.923 3.53651 359.304 3.30885 359.602 2.99228C359.822 2.7731 360.262 2.55394 360.482 2.33476C360.864 2.05832 361.321 1.90529 361.792 1.89641C362.012 1.46802 362.232 1.24883 362.662 1.24883C362.882 1.02966 363.322 1.02966 363.982 0.810486C364.293 0.843283 364.604 0.765636 364.862 0.591309H368.592C368.926 0.76932 369.305 0.845544 369.682 0.810486C369.902 1.02966 370.562 1.02966 371.002 1.24883C371.222 1.24883 371.662 1.46801 371.882 1.46801C372.322 1.8964 372.752 2.11559 372.972 2.33476C373.412 2.55394 373.632 2.7731 374.072 2.99228C374.131 2.99228 374.187 3.01537 374.228 3.05648C374.269 3.09758 374.292 3.15333 374.292 3.21146C374.512 3.21146 374.942 3.43064 374.942 3.64981L375.822 4.52652C376.042 4.7457 376.262 5.17408 376.482 5.39326C376.818 5.72286 377.113 6.09069 377.362 6.48915C377.417 6.81877 377.571 7.12425 377.802 7.36584C377.982 7.78899 378.13 8.22532 378.242 8.67095C378.242 8.89012 378.452 9.32847 378.452 9.54764C378.651 9.95601 378.727 10.4124 378.672 10.8627C378.672 11.2911 378.892 11.5103 378.892 11.9486V100.854H381.082C384.306 100.838 387.406 102.092 389.706 104.343C392.006 106.593 393.32 109.658 393.362 112.869ZM354.772 46.8973L311.142 100.854H354.772V46.8973Z" fill="#6987F1"/>
<path d="M165.682 87.6838C165.677 87.6174 165.677 87.5508 165.682 87.4845C165.502 86.4882 165.812 88.4309 165.682 87.7834C165.552 87.1358 165.482 86.2491 165.422 85.482C165.192 82.7771 165.192 80.0576 165.422 77.3526C165.422 76.964 165.492 76.5855 165.522 76.2069C165.522 76.0873 165.412 77.1035 165.522 76.2966L165.612 75.5992C165.732 74.7026 165.882 73.8059 166.062 72.9193C166.441 70.9644 166.952 69.0373 167.592 67.1509C167.742 66.7026 167.912 66.2543 168.072 65.806C168.282 65.1983 167.792 66.4735 168.122 65.6765L168.452 64.8894C168.882 63.8932 169.352 62.8969 169.852 61.9007C170.352 60.9044 171.002 59.8384 171.632 58.8521C171.932 58.3939 172.232 57.9455 172.542 57.4972C173.072 56.7301 172.292 57.8061 172.702 57.2681L173.292 56.491C175.113 54.2104 177.149 52.1087 179.372 50.2146C179.372 50.2146 179.832 49.846 179.492 50.1249C179.152 50.4039 179.672 49.9755 179.732 49.9257L180.732 49.1386C181.402 48.6405 182.082 48.1424 182.782 47.704C184.248 46.7277 185.763 45.8265 187.322 45.0042C187.739 44.7425 188.101 44.4015 188.387 44.0005C188.672 43.5996 188.875 43.1466 188.985 42.6673C189.094 42.1881 189.108 41.6921 189.025 41.2076C188.942 40.7231 188.764 40.2596 188.502 39.8436C188.239 39.4275 187.897 39.0671 187.494 38.7829C187.092 38.4986 186.637 38.2962 186.156 38.187C185.675 38.0778 185.177 38.0641 184.691 38.1466C184.205 38.2292 183.739 38.4063 183.322 38.668C173.442 43.9183 165.322 52.2071 161.242 62.6578C158.48 69.6859 157.302 77.2329 157.792 84.7647C157.892 86.4377 158.106 88.1019 158.432 89.746C158.717 90.6943 159.367 91.4917 160.24 91.964C161.113 92.4362 162.138 92.545 163.092 92.2665C164.03 91.9589 164.814 91.3058 165.284 90.4409C165.755 89.576 165.875 88.5647 165.622 87.614L165.682 87.6838Z" fill="white"/>
<path d="M169.001 98.2839C169.208 98.9788 169.203 99.7193 168.988 100.412C168.773 101.104 168.356 101.717 167.791 102.174C167.226 102.63 166.538 102.91 165.813 102.977C165.089 103.044 164.361 102.895 163.721 102.55C163.081 102.205 162.558 101.679 162.219 101.038C161.879 100.397 161.738 99.6697 161.813 98.9487C161.887 98.2277 162.175 97.545 162.64 96.9869C163.104 96.4288 163.724 96.0203 164.421 95.8131C164.885 95.674 165.371 95.6276 165.853 95.6767C166.334 95.7257 166.802 95.8692 167.227 96.0988C167.653 96.3285 168.029 96.6398 168.333 97.0148C168.638 97.3898 168.865 97.8211 169.001 98.2839Z" fill="white"/>
<path d="M222.14 136.844L207.617 140.206L218.064 185L232.587 181.638L222.14 136.844Z" fill="#F1D369"/>
<path d="M186.74 17.9462C174.606 20.7586 163.581 27.0918 155.06 36.1452C146.538 45.1986 140.902 56.5658 138.864 68.8097C136.826 81.0537 138.478 93.6248 143.61 104.934C148.742 116.243 157.124 125.782 167.698 132.346C178.271 138.91 190.56 142.203 203.011 141.81C215.463 141.417 227.518 137.355 237.653 130.137C247.787 122.92 255.547 112.871 259.95 101.261C264.353 89.6505 265.202 77.0005 262.39 64.9097C260.521 56.8755 257.081 49.287 252.267 42.5779C247.453 35.8688 241.359 30.1706 234.334 25.8091C227.308 21.4476 219.489 18.5082 211.322 17.159C203.156 15.8099 194.802 16.0774 186.74 17.9462ZM212.26 127.405C202.673 129.626 192.64 128.965 183.43 125.506C174.22 122.046 166.247 115.942 160.519 107.968C154.791 99.9929 151.566 90.5049 151.252 80.7039C150.937 70.9029 153.548 61.2291 158.752 52.9062C163.957 44.5833 171.523 37.9851 180.492 33.9463C189.461 29.9075 199.431 28.6096 209.141 30.2165C218.851 31.8235 227.864 36.2633 235.041 42.9743C242.218 49.6852 247.235 58.3659 249.46 67.9183C252.44 80.721 250.196 94.179 243.221 105.334C236.245 116.489 225.109 124.427 212.26 127.405Z" fill="#F1D369"/>
<g opacity="0.3">
<path d="M249.46 67.8982C251.683 77.4468 251.014 87.4377 247.537 96.6076C244.061 105.777 237.934 113.715 229.93 119.415C221.926 125.116 212.406 128.324 202.572 128.635C192.738 128.945 183.032 126.344 174.682 121.159C166.332 115.975 159.713 108.44 155.661 99.5076C151.609 90.5753 150.306 80.6467 151.918 70.977C153.53 61.3074 157.983 52.3309 164.715 45.1827C171.448 38.0344 180.156 33.0354 189.74 30.8176C196.105 29.3432 202.7 29.133 209.147 30.1988C215.593 31.2647 221.766 33.5857 227.312 37.0293C232.858 40.4729 237.669 44.9716 241.469 50.2683C245.269 55.5649 247.985 61.5557 249.46 67.8982Z" fill="white"/>
<path d="M250.68 81.8657C249.945 94.9138 244.071 107.146 234.334 115.903C224.597 124.659 211.783 129.233 198.68 128.63L250.68 81.8657Z" fill="#030A23" fill-opacity="0.2"/>
<path d="M227.79 37.343L156.56 101.392C154.788 97.8751 153.445 94.1592 152.56 90.3239C151.524 85.9297 151.106 81.4131 151.32 76.9043L203.91 29.6121C212.403 30.1099 220.626 32.7719 227.79 37.343Z" fill="#030A23" fill-opacity="0.2"/>
<path d="M248.089 63.146L180.239 124.147C177.274 122.789 174.45 121.144 171.809 119.235L244.059 54.2793C245.7 57.091 247.051 60.0619 248.089 63.146Z" fill="#030A23" fill-opacity="0.2"/>
<path d="M233.26 41.3879L160 107.24C159.66 106.742 159.32 106.244 159 105.736L231.84 40.2522C232.34 40.6108 232.81 40.9795 233.26 41.3879Z" fill="#030A23" fill-opacity="0.2"/>
<path d="M187.32 31.4453L154.82 60.6555C155.37 59.2707 155.99 57.9158 156.67 56.6008L183.1 32.8301C184.47 32.322 185.88 31.8538 187.32 31.4453Z" fill="#EBEBEB"/>
</g>
</svg>
