<svg width="25" height="24" viewBox="0 0 25 24" fill="none" xmlns="http://www.w3.org/2000/svg">
<g id="vuesax/outline/award">
<g id="award">
<path id="Vector" d="M12.4998 22.7501C11.8998 22.7501 11.3098 22.6101 10.8298 22.3401L6.09977 19.6101C4.13977 18.2901 4.00977 18.0501 4.00977 15.9801V11.0201C4.00977 8.95006 4.13977 8.71006 6.05977 7.42006L10.8398 4.66006C11.7898 4.11006 13.2198 4.11006 14.1698 4.66006L18.8998 7.39006C20.8598 8.71006 20.9898 8.95006 20.9898 11.0201V15.9801C20.9898 18.0501 20.8598 18.2901 18.9398 19.5801L14.1598 22.3401C13.6898 22.6201 13.0898 22.7501 12.4998 22.7501ZM12.4998 5.75006C12.1598 5.75006 11.8198 5.82006 11.5798 5.96006L6.84977 8.69006C5.50977 9.60006 5.50977 9.60006 5.50977 11.0201V15.9801C5.50977 17.4001 5.50977 17.4001 6.89977 18.3401L11.5898 21.0401C12.0698 21.3201 12.9398 21.3201 13.4198 21.0401L18.1498 18.3101C19.4898 17.4001 19.4898 17.4001 19.4898 15.9801V11.0201C19.4898 9.60006 19.4898 9.60006 18.0998 8.66006L13.4098 5.96006C13.1798 5.82006 12.8398 5.75006 12.4998 5.75006Z" fill="white"/>
<path id="Vector_2" d="M18 8.38C17.59 8.38 17.25 8.04 17.25 7.63V5C17.25 3.42 16.58 2.75 15 2.75H10C8.42 2.75 7.75 3.42 7.75 5V7.56C7.75 7.97 7.41 8.31 7 8.31C6.59 8.31 6.25 7.98 6.25 7.56V5C6.25 2.58 7.58 1.25 10 1.25H15C17.42 1.25 18.75 2.58 18.75 5V7.63C18.75 8.04 18.41 8.38 18 8.38Z" fill="white"/>
<path id="Vector_3" d="M14.1302 17.6301C13.9202 17.6301 13.7002 17.5901 13.4802 17.5001L12.5002 17.1201L11.5202 17.5101C10.9902 17.7201 10.4502 17.6701 10.0502 17.3801C9.65024 17.0901 9.44024 16.5901 9.47024 16.0201L9.53024 14.9701L8.86024 14.1601C8.50024 13.7101 8.38024 13.1901 8.54024 12.7101C8.69024 12.2401 9.10024 11.8801 9.65024 11.7401L10.6702 11.4801L11.2402 10.5901C11.8502 9.63012 13.1602 9.63012 13.7702 10.5901L14.3402 11.4801L15.3602 11.7401C15.9102 11.8801 16.3202 12.2401 16.4702 12.7101C16.6202 13.1801 16.5002 13.7101 16.1402 14.1501L15.4702 14.9601L15.5302 16.0101C15.5602 16.5801 15.3502 17.0701 14.9502 17.3701C14.7102 17.5401 14.4302 17.6301 14.1302 17.6301ZM10.0202 13.2001L10.6902 14.0101C10.9202 14.2801 11.0502 14.7101 11.0302 15.0601L10.9702 16.1101L11.9502 15.7201C12.2802 15.5901 12.7202 15.5901 13.0502 15.7201L14.0302 16.1101L13.9702 15.0601C13.9502 14.7101 14.0802 14.2901 14.3102 14.0101L14.9802 13.2001L13.9602 12.9401C13.6202 12.8501 13.2602 12.5901 13.0702 12.3001L12.5102 11.4201L11.9402 12.3001C11.7502 12.6001 11.3902 12.8601 11.0502 12.9501L10.0202 13.2001Z" fill="white"/>
</g>
</g>
</svg>
