<svg width="25" height="24" viewBox="0 0 25 24" fill="none" xmlns="http://www.w3.org/2000/svg">
<g id="vuesax/outline/award">
<g id="award">
<path id="Vector" d="M12.5 22.7496C11.9 22.7496 11.31 22.6096 10.83 22.3396L6.10001 19.6096C4.14001 18.2896 4.01001 18.0496 4.01001 15.9796V11.0196C4.01001 8.94957 4.14001 8.70957 6.06001 7.41957L10.84 4.65957C11.79 4.10957 13.22 4.10957 14.17 4.65957L18.9 7.38957C20.86 8.70957 20.99 8.94957 20.99 11.0196V15.9796C20.99 18.0496 20.86 18.2896 18.94 19.5796L14.16 22.3396C13.69 22.6196 13.09 22.7496 12.5 22.7496ZM12.5 5.74957C12.16 5.74957 11.82 5.81957 11.58 5.95957L6.85001 8.68957C5.51001 9.59957 5.51001 9.59957 5.51001 11.0196V15.9796C5.51001 17.3996 5.51001 17.3996 6.90001 18.3396L11.59 21.0396C12.07 21.3196 12.94 21.3196 13.42 21.0396L18.15 18.3096C19.49 17.3996 19.49 17.3996 19.49 15.9796V11.0196C19.49 9.59957 19.49 9.59957 18.1 8.65957L13.41 5.95957C13.18 5.81957 12.84 5.74957 12.5 5.74957Z" fill="#292D32"/>
<path id="Vector_2" d="M18 8.38C17.59 8.38 17.25 8.04 17.25 7.63V5C17.25 3.42 16.58 2.75 15 2.75H10C8.42 2.75 7.75 3.42 7.75 5V7.56C7.75 7.97 7.41 8.31 7 8.31C6.59 8.31 6.25 7.98 6.25 7.56V5C6.25 2.58 7.58 1.25 10 1.25H15C17.42 1.25 18.75 2.58 18.75 5V7.63C18.75 8.04 18.41 8.38 18 8.38Z" fill="#292D32"/>
<path id="Vector_3" d="M14.13 17.6301C13.92 17.6301 13.7 17.5901 13.48 17.5001L12.5 17.1201L11.52 17.5101C10.99 17.7201 10.45 17.6701 10.05 17.3801C9.64999 17.0901 9.43999 16.5901 9.46999 16.0201L9.52999 14.9701L8.85999 14.1601C8.49999 13.7101 8.37999 13.1901 8.53999 12.7101C8.68999 12.2401 9.09999 11.8801 9.64999 11.7401L10.67 11.4801L11.24 10.5901C11.85 9.63012 13.16 9.63012 13.77 10.5901L14.34 11.4801L15.36 11.7401C15.91 11.8801 16.32 12.2401 16.47 12.7101C16.62 13.1801 16.5 13.7101 16.14 14.1501L15.47 14.9601L15.53 16.0101C15.56 16.5801 15.35 17.0701 14.95 17.3701C14.71 17.5401 14.43 17.6301 14.13 17.6301ZM10.02 13.2001L10.69 14.0101C10.92 14.2801 11.05 14.7101 11.03 15.0601L10.97 16.1101L11.95 15.7201C12.28 15.5901 12.72 15.5901 13.05 15.7201L14.03 16.1101L13.97 15.0601C13.95 14.7101 14.08 14.2901 14.31 14.0101L14.98 13.2001L13.96 12.9401C13.62 12.8501 13.26 12.5901 13.07 12.3001L12.51 11.4201L11.94 12.3001C11.75 12.6001 11.39 12.8601 11.05 12.9501L10.02 13.2001Z" fill="#292D32"/>
</g>
</g>
</svg>
