<svg width="72" height="72" viewBox="0 0 72 72" fill="none" xmlns="http://www.w3.org/2000/svg">
<path opacity="0.4" d="M48.5681 26.5799C47.3981 26.5799 46.4681 25.6499 46.4681 24.4799V20.6399C46.4681 17.6999 45.2081 14.8799 43.0481 12.8999C40.8281 10.8899 37.9781 9.95995 34.9781 10.2299C29.9381 10.7099 25.5281 15.8399 25.5281 21.1799V23.8799C25.5281 25.0499 24.5981 25.9799 23.4281 25.9799C22.2581 25.9799 21.3281 25.0499 21.3281 23.8799V21.1799C21.3281 13.6799 27.3881 6.74995 34.5581 6.05995C38.7281 5.66995 42.7481 6.98995 45.8381 9.80994C48.8981 12.5699 50.6381 16.5299 50.6381 20.6399V24.4799C50.6381 25.6499 49.7081 26.5799 48.5681 26.5799Z" fill="#F84263"/>
<path d="M59.8792 26.88C57.3592 24.09 53.2192 22.74 47.1592 22.74H24.8392C18.7792 22.74 14.6392 24.09 12.1192 26.88C9.20924 30.12 9.29924 34.44 9.62924 37.44L11.7292 54.15C12.3592 60 14.7292 66 27.6292 66H44.3692C57.2692 66 59.6392 60 60.2692 54.18L62.3692 37.41C62.6992 34.44 62.7892 30.12 59.8792 26.88ZM35.9992 55.74C29.7292 55.74 24.6292 50.64 24.6292 44.37C24.6292 38.1 29.7292 33 35.9992 33C42.2692 33 47.3692 38.1 47.3692 44.37C47.3692 50.64 42.2692 55.74 35.9992 55.74Z" fill="#F84263"/>
<path opacity="0.4" d="M35.9989 55.74C42.2784 55.74 47.3689 50.6495 47.3689 44.37C47.3689 38.0905 42.2784 33 35.9989 33C29.7194 33 24.6289 38.0905 24.6289 44.37C24.6289 50.6495 29.7194 55.74 35.9989 55.74Z" fill="#F84263"/>
<path d="M40.7994 45.93L39.2094 44.34L40.7094 42.84C41.5794 41.97 41.5794 40.53 40.7094 39.66C39.8394 38.79 38.3994 38.79 37.5294 39.66L36.0294 41.16L34.4394 39.57C33.5694 38.7 32.1294 38.7 31.2594 39.57C30.3894 40.44 30.3894 41.88 31.2594 42.75L32.8494 44.34L31.1994 45.99C30.3294 46.86 30.3294 48.3 31.1994 49.17C31.6494 49.62 32.2194 49.83 32.7894 49.83C33.3594 49.83 33.9294 49.62 34.3794 49.17L36.0294 47.52L37.6194 49.11C38.0694 49.56 38.6394 49.77 39.2094 49.77C39.7794 49.77 40.3494 49.56 40.7994 49.11C41.6694 48.24 41.6694 46.83 40.7994 45.93Z" fill="#F84263"/>
</svg>
