<svg width="135" height="44" viewBox="0 0 135 44" fill="none" xmlns="http://www.w3.org/2000/svg">
<path d="M6.49206 21.468C6.04406 22.5133 5.70806 23.3907 5.48406 24.1C5.26006 24.7907 5.1294 25.5373 5.09206 26.34C5.05473 27.3293 5.2414 28.1413 5.65206 28.776C6.06273 29.4107 6.6694 29.868 7.47206 30.148C8.27473 30.4467 9.2734 30.596 10.4681 30.596C11.3081 30.596 12.1387 30.5213 12.9601 30.372C13.7814 30.2227 14.5281 29.9987 15.2001 29.7C15.8721 29.42 16.4134 29.056 16.8241 28.608C16.4881 28.552 16.1334 28.4867 15.7601 28.412C15.4054 28.3373 15.0414 28.2627 14.6681 28.188C14.3134 28.0947 13.9681 28.0013 13.6321 27.908C12.5494 27.572 11.7001 27.1987 11.0841 26.788C10.4681 26.3587 10.0294 25.8267 9.76806 25.192C9.5254 24.5387 9.4414 23.708 9.51606 22.7C9.6094 21.1507 10.0854 19.676 10.9441 18.276C11.8027 16.876 12.8947 15.7653 14.2201 14.944C15.5454 14.1227 16.9174 13.74 18.3361 13.796C18.8961 13.8333 19.4561 13.9453 20.0161 14.132C20.5761 14.3 20.9494 14.496 21.1361 14.72L19.6801 19.284C19.4934 19.228 19.2507 19.1813 18.9521 19.144C18.6721 19.088 18.4201 19.06 18.1961 19.06C17.5054 19.0227 16.8147 19.116 16.1241 19.34C15.4521 19.564 14.8641 19.9 14.3601 20.348C13.8561 20.796 13.5014 21.3093 13.2961 21.888C13.2214 22.112 13.2587 22.3173 13.4081 22.504C13.5761 22.672 13.9027 22.84 14.3881 23.008C14.8734 23.176 15.5734 23.3533 16.4881 23.54C17.7014 23.7827 18.6347 24.1187 19.2881 24.548C19.9414 24.9773 20.3707 25.4347 20.5761 25.92C20.8001 26.4053 20.9121 26.928 20.9121 27.488C20.9121 28.9813 20.4454 30.3627 19.5121 31.632C18.5787 32.92 17.3094 33.9467 15.7041 34.712C14.0987 35.4773 12.3534 35.86 10.4681 35.86C8.62006 35.86 6.9774 35.496 5.54006 34.768C4.1214 34.0587 3.0294 32.9853 2.26406 31.548C1.49873 30.1107 1.20006 28.3653 1.36806 26.312C1.4614 25.2667 1.69473 24.184 2.06806 23.064C2.4414 21.9253 2.8614 20.8427 3.32806 19.816L6.57606 21.272L6.49206 21.468ZM34.2672 29C32.9045 29 31.7752 28.496 30.8792 27.488C30.0019 26.4613 29.2739 25.0427 28.6952 23.232L31.8592 21.3C32.1019 22.196 32.4005 22.8307 32.7552 23.204C33.1099 23.5587 33.6139 23.736 34.2672 23.736H34.5752L34.8552 26.368L34.5752 29H34.2672ZM22.3672 32.864C23.6179 32.304 24.7659 31.688 25.8112 31.016C26.8752 30.3627 27.7152 29.7467 28.3312 29.168C28.9659 28.5893 29.2832 28.132 29.2832 27.796C29.2832 27.404 29.1152 26.5827 28.7792 25.332C28.4432 24.0813 28.0325 22.6813 27.5472 21.132L31.3272 19.62C31.7939 20.908 32.1579 22.28 32.4192 23.736C32.6805 25.1733 32.8112 26.5267 32.8112 27.796C32.8112 29.1027 32.4752 30.3347 31.8032 31.492C31.1312 32.668 30.1792 33.732 28.9472 34.684C27.7152 35.6547 26.2592 36.5133 24.5792 37.26L22.3672 32.864ZM34.2858 23.736H35.7698C36.9831 23.736 37.8698 23.6147 38.4298 23.372C38.9898 23.1293 39.2698 22.7933 39.2698 22.364C39.2698 22.084 39.0644 21.384 38.6538 20.264C38.2618 19.144 37.9538 18.304 37.7298 17.744L41.3138 15.784C41.6684 16.568 42.0418 17.66 42.4338 19.06C42.8258 20.4413 43.0218 21.6547 43.0218 22.7C43.0218 24.7533 42.3964 26.3213 41.1458 27.404C39.8951 28.468 38.1031 29 35.7698 29H34.2858V23.736ZM37.9538 36.364C37.2631 36.364 36.6658 36.112 36.1618 35.608C35.6764 35.1227 35.4338 34.5347 35.4338 33.844C35.4338 33.1347 35.6764 32.5373 36.1618 32.052C36.6658 31.5667 37.2631 31.324 37.9538 31.324C38.6444 31.324 39.2324 31.5667 39.7178 32.052C40.2218 32.556 40.4738 33.1533 40.4738 33.844C40.4738 34.5347 40.2218 35.1227 39.7178 35.608C39.2324 36.112 38.6444 36.364 37.9538 36.364ZM45.1402 32.724C47.3802 32.2387 49.1722 31.7347 50.5162 31.212C51.8602 30.6893 52.8495 30.0827 53.4842 29.392C54.1188 28.7013 54.4362 27.8707 54.4362 26.9C54.4362 25.8547 54.2962 24.856 54.0162 23.904C53.7548 22.952 53.3908 22.1587 52.9242 21.524C52.4762 20.8893 52.0002 20.4973 51.4962 20.348C50.9922 20.1987 50.5348 20.2827 50.1242 20.6C49.7135 20.9173 49.4242 21.3187 49.2562 21.804C49.1068 22.2893 49.1348 22.6533 49.3402 22.896C49.6762 23.288 50.4602 23.5307 51.6922 23.624C52.9428 23.7173 54.8282 23.7547 57.3482 23.736H58.9442L59.2242 26.368L58.9442 29C58.3282 29 57.7028 29 57.0682 29C54.8842 29.0187 53.1575 28.9907 51.8882 28.916C50.6188 28.8227 49.4708 28.552 48.4442 28.104C47.4362 27.6373 46.7082 26.9 46.2602 25.892C45.7002 24.6413 45.5788 23.2133 45.8962 21.608C46.2322 19.984 46.9135 18.6027 47.9402 17.464C48.9668 16.3067 50.1615 15.728 51.5242 15.728C52.6815 15.728 53.7455 16.2133 54.7162 17.184C55.6868 18.1547 56.4522 19.452 57.0122 21.076C57.5722 22.7 57.8522 24.464 57.8522 26.368C57.8522 28.2347 57.4042 29.9147 56.5082 31.408C55.6308 32.9013 54.3615 34.1427 52.7002 35.132C51.0388 36.14 49.0695 36.8493 46.7922 37.26L45.1402 32.724ZM67.4157 23.736L67.6957 26.368L67.4157 29H67.1077C66.137 29 65.2224 28.6827 64.3637 28.048C63.505 27.3947 62.805 26.5267 62.2637 25.444C61.7224 24.3613 61.433 23.176 61.3957 21.888L61.3397 20.656C61.2464 18.92 61.1157 16.8107 60.9477 14.328C60.7797 11.8453 60.6304 9.89467 60.4997 8.476L64.8397 7.496C64.933 8.52267 65.017 10.016 65.0917 11.976C65.185 13.936 65.269 15.812 65.3437 17.604C65.4557 20.3293 65.521 21.7667 65.5397 21.916C65.577 22.588 65.7264 23.064 65.9877 23.344C66.2677 23.6053 66.641 23.736 67.1077 23.736H67.4157ZM58.5397 23.736H59.0157C59.8744 23.736 60.4904 23.6053 60.8637 23.344C61.237 23.0827 61.4144 22.5973 61.3957 21.888L64.4477 22.252C64.4477 23.5027 64.233 24.6413 63.8037 25.668C63.3744 26.6947 62.749 27.5067 61.9277 28.104C61.125 28.7013 60.1824 29 59.0997 29H58.5397V23.736ZM67.1256 23.736H68.6096C69.823 23.736 70.7096 23.6147 71.2696 23.372C71.8296 23.1293 72.1096 22.7933 72.1096 22.364C72.1096 22.084 71.9043 21.384 71.4936 20.264C71.1016 19.144 70.7936 18.304 70.5696 17.744L74.1536 15.784C74.5083 16.568 74.8816 17.66 75.2736 19.06C75.6656 20.4413 75.8616 21.6547 75.8616 22.7C75.8616 24.7533 75.2363 26.3213 73.9856 27.404C72.735 28.468 70.943 29 68.6096 29H67.1256V23.736ZM69.3376 36.392C68.647 36.392 68.0496 36.14 67.5456 35.636C67.0603 35.1507 66.8176 34.5627 66.8176 33.872C66.8176 33.1627 67.0603 32.5653 67.5456 32.08C68.0496 31.5947 68.647 31.352 69.3376 31.352C70.0283 31.352 70.6163 31.5947 71.1016 32.08C71.6056 32.584 71.8576 33.1813 71.8576 33.872C71.8576 34.5627 71.6056 35.1507 71.1016 35.636C70.6163 36.14 70.0283 36.392 69.3376 36.392Z" fill="#6987F1"/>
<g clip-path="url(#clip0_2047_1057)">
<path d="M106.068 25.9526C108.942 25.9526 111.281 28.2615 111.281 31.0983C111.281 33.9352 108.942 36.2441 106.068 36.2441C103.195 36.2441 100.856 33.9352 100.856 31.0983C100.856 28.2615 103.195 25.9526 106.068 25.9526ZM106.068 18.1967C98.8513 18.1967 93 23.9733 93 31.0983C93 38.2234 98.8513 44 106.068 44C113.285 44 119.137 38.2234 119.137 31.0983C119.137 23.9733 113.285 18.1967 106.068 18.1967Z" fill="#6987F1"/>
<path d="M121.932 16.8542C124.805 16.8542 127.144 19.1631 127.144 22C127.144 24.8368 124.805 27.1457 121.932 27.1457C119.058 27.1457 116.719 24.8368 116.719 22C116.719 19.1631 119.058 16.8542 121.932 16.8542ZM121.932 9.09827C114.715 9.09827 108.863 14.8749 108.863 22C108.863 29.125 114.715 34.9016 121.932 34.9016C129.149 34.9016 135 29.125 135 22C135 14.8749 129.149 9.09827 121.932 9.09827Z" fill="#6987F1"/>
<path d="M106.068 7.75593C108.942 7.75593 111.281 10.0648 111.281 12.9017C111.281 15.7386 108.942 18.0475 106.068 18.0475C103.195 18.0475 100.856 15.7386 100.856 12.9017C100.856 10.0648 103.195 7.75593 106.068 7.75593ZM106.068 0C98.8513 0 93 5.77668 93 12.9017C93 20.0267 98.8513 25.8034 106.068 25.8034C113.285 25.8034 119.137 20.0267 119.137 12.9017C119.137 5.77668 113.285 0 106.068 0Z" fill="#6987F1"/>
</g>
<defs>
<clipPath id="clip0_2047_1057">
<rect width="42" height="44" fill="white" transform="translate(93)"/>
</clipPath>
</defs>
</svg>
