<svg width="48" height="48" viewBox="0 0 48 48" fill="none" xmlns="http://www.w3.org/2000/svg">
<g id="vuesax/outline/calendar-2">
<g id="calendar-2">
<path id="Vector" d="M16 11.5C15.18 11.5 14.5 10.82 14.5 10V4C14.5 3.18 15.18 2.5 16 2.5C16.82 2.5 17.5 3.18 17.5 4V10C17.5 10.82 16.82 11.5 16 11.5Z" fill="#292D32"/>
<path id="Vector_2" d="M32 11.5C31.18 11.5 30.5 10.82 30.5 10V4C30.5 3.18 31.18 2.5 32 2.5C32.82 2.5 33.5 3.18 33.5 4V10C33.5 10.82 32.82 11.5 32 11.5Z" fill="#292D32"/>
<path id="Vector_3" d="M41 19.6799H7C6.18 19.6799 5.5 18.9999 5.5 18.1799C5.5 17.3599 6.18 16.6799 7 16.6799H41C41.82 16.6799 42.5 17.3599 42.5 18.1799C42.5 18.9999 41.82 19.6799 41 19.6799Z" fill="#292D32"/>
<path id="Vector_4" d="M32 45.5H16C8.7 45.5 4.5 41.3 4.5 34V17C4.5 9.7 8.7 5.5 16 5.5H32C39.3 5.5 43.5 9.7 43.5 17V34C43.5 41.3 39.3 45.5 32 45.5ZM16 8.5C10.28 8.5 7.5 11.28 7.5 17V34C7.5 39.72 10.28 42.5 16 42.5H32C37.72 42.5 40.5 39.72 40.5 34V17C40.5 11.28 37.72 8.5 32 8.5H16Z" fill="#292D32"/>
<path id="Vector_5" d="M17 29C16.74 29 16.48 28.94 16.24 28.84C16 28.74 15.78 28.6 15.58 28.42C15.4 28.22 15.26 28 15.16 27.76C15.06 27.52 15 27.26 15 27C15 26.48 15.22 25.96 15.58 25.58C15.78 25.4 16 25.26 16.24 25.16C16.6 25 17 24.96 17.4 25.04C17.52 25.06 17.64 25.1 17.76 25.16C17.88 25.2 18 25.2601 18.12 25.3401C18.22 25.4201 18.32 25.5 18.42 25.58C18.5 25.68 18.6 25.78 18.66 25.88C18.74 26 18.8 26.12 18.84 26.24C18.9 26.36 18.94 26.48 18.96 26.6C18.98 26.74 19 26.86 19 27C19 27.52 18.78 28.04 18.42 28.42C18.04 28.78 17.52 29 17 29Z" fill="#292D32"/>
<path id="Vector_6" d="M24 29C23.48 29 22.96 28.78 22.58 28.42C22.5 28.32 22.42 28.22 22.34 28.12C22.26 28 22.2 27.88 22.16 27.76C22.1 27.64 22.06 27.52 22.04 27.4C22.02 27.26 22 27.14 22 27C22 26.74 22.06 26.48 22.16 26.24C22.26 26 22.4 25.78 22.58 25.58C23.14 25.02 24.04 24.84 24.76 25.16C25.02 25.26 25.22 25.4 25.42 25.58C25.78 25.96 26 26.48 26 27C26 27.14 25.98 27.26 25.96 27.4C25.94 27.52 25.9 27.64 25.84 27.76C25.8 27.88 25.74 28 25.66 28.12C25.58 28.22 25.5 28.32 25.42 28.42C25.22 28.6 25.02 28.74 24.76 28.84C24.52 28.94 24.26 29 24 29Z" fill="#292D32"/>
<path id="Vector_7" d="M17 36C16.74 36 16.48 35.94 16.24 35.84C16 35.74 15.78 35.6 15.58 35.42C15.4 35.22 15.26 35.02 15.16 34.76C15.06 34.52 15 34.26 15 34C15 33.48 15.22 32.96 15.58 32.58C15.78 32.4 16 32.26 16.24 32.16C16.98 31.84 17.86 32.02 18.42 32.58C18.5 32.68 18.6 32.78 18.66 32.88C18.74 33 18.8 33.12 18.84 33.24C18.9 33.36 18.94 33.48 18.96 33.62C18.98 33.74 19 33.88 19 34C19 34.52 18.78 35.04 18.42 35.42C18.04 35.78 17.52 36 17 36Z" fill="#292D32"/>
</g>
</g>
</svg>
