<svg width="103" height="103" viewBox="0 0 103 103" fill="none" xmlns="http://www.w3.org/2000/svg">
<path id="Vector" fill-rule="evenodd" clip-rule="evenodd" d="M90.6587 51.4996L90.68 51.8914L90.7425 52.2845L90.8447 52.6803L90.9849 53.0798L91.1618 53.4843L91.3739 53.8949L91.6199 54.3126L91.8984 54.7384L92.208 55.1732L92.5473 55.6181L92.9146 56.0737L93.3085 56.5408L93.7271 57.0203L94.1686 57.5125L94.6307 58.0182L95.1114 58.5376L95.6079 59.071L96.1177 59.6187L96.6376 60.1805L97.1644 60.7563L97.6946 61.3456L98.2242 61.9481L98.7491 62.5627L99.2651 63.1885L99.7674 63.8243L100.251 64.4685L100.712 65.1194L101.144 65.775L101.542 66.433L101.902 67.091L102.219 67.7464L102.487 68.3964L102.703 69.0381L102.863 69.6687L102.963 70.2851L103 70.8844L102.972 71.4639L102.879 72.021L102.718 72.5531L102.491 73.0583L102.198 73.5347L101.841 73.9808L101.423 74.3955L100.947 74.7782L100.416 75.1287L99.8344 75.4469L99.2075 75.7335L98.54 75.9892L97.8371 76.2154L97.1041 76.4133L96.3462 76.5848L95.5688 76.7318L94.7769 76.8563L93.9753 76.9607L93.1688 77.0471L92.3617 77.1179L91.5579 77.1755L90.7611 77.2223L89.9746 77.2606L89.2014 77.2926L88.4442 77.3207L87.7051 77.3469L86.9864 77.3733L86.2895 77.402L85.6161 77.4349L84.9674 77.4739L84.3443 77.5207L83.7478 77.5772L83.1784 77.645L82.6368 77.7259L82.1235 77.8214L81.6386 77.9333L81.1826 78.0632L80.7557 78.2128L80.3581 78.3838L79.99 78.5781L79.6517 78.7975L79.3433 79.044L79.0652 79.3198L78.8164 79.6257L78.5949 79.9617L78.3987 80.3274L78.2259 80.7227L78.0747 81.1473L77.9433 81.601L77.83 82.0835L77.7332 82.5946L77.6513 83.134L77.5825 83.7011L77.5252 84.2955L77.4776 84.9165L77.4381 85.5633L77.4048 86.2347L77.3758 86.9298L77.3492 87.6469L77.3231 88.3844L77.2953 89.1403L77.2636 89.9123L77.226 90.6978L77.1799 91.4939L77.1233 92.2973L77.0536 93.1043L76.9685 93.911L76.8657 94.7131L76.7428 95.506L76.5977 96.2847L76.4282 97.0443L76.2324 97.7795L76.0086 98.4851L75.7553 99.1556L75.4712 99.7859L75.1555 100.371L74.8076 100.906L74.4275 101.387L74.0153 101.81L73.5716 102.172L73.0976 102.47L72.5947 102.702L72.0646 102.868L71.5095 102.967L70.9317 103L70.3338 102.968L69.7186 102.873L69.0891 102.718L68.4482 102.506L67.7987 102.242L67.1436 101.929L66.4857 101.572L65.8277 101.177L65.1718 100.747L64.5205 100.289L63.8757 99.8065L63.2392 99.3054L62.6125 98.7904L61.9969 98.266L61.3935 97.7366L60.8031 97.2064L60.2262 96.6791L59.6633 96.1585L59.1145 95.6479L58.5799 95.1501L58.0594 94.6681L57.5527 94.2044L57.0594 93.7612L56.579 93.3407L56.1108 92.9448L55.6543 92.5753L55.2087 92.2337L54.7731 91.9217L54.3466 91.6407L53.9283 91.3921L53.5172 91.1772L53.1123 90.9974L52.7124 90.8542L52.3164 90.7489L51.923 90.6832L51.5312 90.6586L51.1394 90.6765L50.7464 90.7358L50.3509 90.8349L49.9517 90.9721L49.5477 91.1462L49.1376 91.3555L48.7206 91.5989L48.2954 91.8749L47.8613 92.182L47.4173 92.519L46.9626 92.8842L46.4964 93.276L46.018 93.6927L45.5267 94.1324L45.0222 94.593L44.5039 95.0722L43.9716 95.5676L43.4251 96.0765L42.8644 96.5957L42.2897 97.1221L41.7014 97.6521L41.1 98.1819L40.4863 98.7074L39.8613 99.2242L39.2263 99.7278L38.5827 100.213L37.9323 100.676L37.277 101.11L36.6191 101.512L35.961 101.875L35.3053 102.195L34.6548 102.468L34.0123 102.688L33.3807 102.852L32.7631 102.957L32.1623 102.999L31.5811 102.977L31.0222 102.888L30.4879 102.733L29.9806 102.511L29.5018 102.224L29.0533 101.872L28.636 101.458L28.2507 100.987L27.8977 100.46L27.5769 99.8822L27.2879 99.2588L27.0297 98.5943L26.8013 97.894L26.6011 97.1632L26.4276 96.4071L26.2787 95.6311L26.1525 94.8401L26.0466 94.0392L25.9589 93.2329L25.8869 92.4257L25.8283 91.6214L25.7808 90.824L25.7419 90.0365L25.7094 89.2622L25.6812 88.5036L25.6549 87.763L25.6285 87.0425L25.6001 86.3439L25.5676 85.6686L25.5292 85.0178L25.483 84.3927L25.4274 83.794L25.3605 83.2225L25.2807 82.6787L25.1864 82.163L25.0759 81.6759L24.9475 81.2176L24.7996 80.7884L24.6303 80.3884L24.438 80.018L24.2206 79.6772L23.9763 79.3665L23.703 79.0859L23.3994 78.8349L23.0658 78.6113L22.7025 78.4132L22.3096 78.2386L21.8873 78.0857L21.4359 77.9528L20.9557 77.8381L20.4468 77.7401L19.9097 77.657L19.3447 77.5872L18.7525 77.529L18.1336 77.4808L17.4889 77.4407L16.8193 77.4069L16.1261 77.3777L15.4107 77.351L14.6748 77.3249L13.9203 77.2973L13.1495 77.2661L12.3649 77.2289L11.5696 77.1837L10.7666 77.1279L9.95977 77.0593L9.15288 76.9756L8.35027 76.8742L7.5565 76.7531L6.77642 76.6098L6.0151 76.4423L5.27775 76.2487L4.56968 76.0272L3.89619 75.7763L3.26249 75.4947L2.67362 75.1815L2.1343 74.8362L1.64887 74.4586L1.22116 74.0489L0.854444 73.6078L0.551297 73.1362L0.313587 72.6355L0.142405 72.1074L0.0380445 71.5542L0 70.9781L0.0269857 70.3817L0.116974 69.7679L0.267255 69.1394L0.474504 68.4992L0.734873 67.8503L1.04407 67.1956L1.39749 66.5378L1.79024 65.8797L2.21732 65.2236L2.67365 64.5718L3.15416 63.9264L3.65388 63.2892L4.16797 62.6617L4.6918 62.0452L5.22095 61.4407L5.75126 60.8492L6.27884 60.2713L6.80009 59.7072L7.31168 59.1573L7.81054 58.6216L8.29388 58.1L8.75916 57.5922L9.20405 57.0978L9.62642 56.6164L10.0243 56.1473L10.396 55.6899L10.7399 55.2434L11.0543 54.807L11.3378 54.3798L11.5891 53.9609L11.8067 53.5493L11.9893 53.1439L12.1355 52.7436L12.2438 52.3474L12.3128 51.9539L12.3407 51.562L12.3262 51.1702L12.2701 50.7774L12.1742 50.3821L12.0399 49.9833L11.8688 49.5796L11.6621 49.1701L11.4214 48.7536L11.148 48.3292L10.8433 47.8958L10.5087 47.4526L10.1457 46.9988L9.75591 46.5335L9.34112 46.0561L8.90319 45.5659L8.44417 45.0624L7.96631 44.5452L7.4721 44.014L6.96425 43.4687L6.44573 42.9091L5.91978 42.3355L5.38993 41.7483L4.85998 41.1479L4.33399 40.5351L3.8163 39.911L3.31149 39.2767L2.82432 38.6337L2.35975 37.9838L1.9228 37.3288L1.51856 36.6711L1.15208 36.0129L0.828278 35.3569L0.551871 34.7059L0.327261 34.0626L0.158447 33.4301L0.0489281 32.8112L0.00162006 32.209L0.0187746 31.6261L0.101919 31.0653L0.25181 30.529L0.468409 30.0194L0.750879 29.5384L1.0976 29.0874L1.5062 28.6676L1.97363 28.2797L2.49624 27.9242L3.06982 27.6008L3.68977 27.3092L4.35114 27.0486L5.04878 26.8179L5.77738 26.6156L6.53164 26.44L7.3063 26.2892L8.09624 26.1613L8.89655 26.0539L9.70255 25.9648L10.5099 25.8916L11.3145 25.832L12.1126 25.7837L12.9009 25.7442L13.6764 25.7113L14.4364 25.6828L15.1785 25.6564L15.9006 25.6302L16.601 25.602L17.2783 25.5699L17.931 25.532L18.5582 25.4865L19.159 25.4317L19.7327 25.3658L20.2788 25.2871L20.7967 25.194L21.2861 25.0848L21.7467 24.9579L22.1782 24.8116L22.5805 24.6441L22.9533 24.4536L23.2964 24.2384L23.6096 23.9963L23.8925 23.7254L24.1458 23.4242L24.3715 23.093L24.5716 22.732L24.748 22.3414L24.9026 21.9215L25.037 21.4724L25.1531 20.9944L25.2524 20.4878L25.3366 19.953L25.4074 19.3902L25.4664 18.8001L25.5154 18.1833L25.5561 17.5406L25.5903 16.873L25.6198 16.1816L25.6466 15.4679L25.6727 14.7335L25.7001 13.9804L25.731 13.2108L25.7675 12.4273L25.8121 11.6326L25.8669 10.8302L25.9344 10.0235L26.0168 9.21645L26.1167 8.41333L26.2362 7.61868L26.3776 6.83733L26.5431 6.07432L26.7345 5.33486L26.9538 4.62426L27.2023 3.94782L27.4815 3.31077L27.7921 2.71815L28.1348 2.17471L28.5098 1.68484L28.9169 1.25241L29.3556 0.880726L29.8249 0.572437L30.3233 0.329465L30.8492 0.152963L31.4005 0.0432886L31.9749 0L32.5698 0.0218721L33.1823 0.106935L33.8098 0.252529L34.4491 0.455377L35.0974 0.711668L35.7518 1.01715L36.4094 1.36722L37.0676 1.75702L37.724 2.18156L38.3761 2.63575L39.0221 3.11452L39.66 3.61289L40.2884 4.12601L40.9058 4.64923L41.5112 5.17811L42.1038 5.70848L42.6828 6.23642L43.248 6.7583L43.799 7.27077L44.3359 7.77075L44.8586 8.25543L45.3675 8.72224L45.8629 9.16883L46.3454 9.59307L46.8154 9.99301L47.2737 10.3669L47.721 10.713L48.1582 11.0298L48.5861 11.3158L49.0056 11.5697L49.4178 11.7901L49.8236 11.9755L50.2242 12.1247L50.6208 12.2361L51.0144 12.3082L51.4064 12.3395L51.7981 12.3283L52.1908 12.2755L52.5858 12.1827L52.9844 12.0514L53.3876 11.8831L53.7966 11.6793L54.2125 11.4412L54.6363 11.1704L55.0689 10.8681L55.5112 10.5358L55.9642 10.175L56.4285 9.78731L56.905 9.37444L57.3941 8.93828L57.8965 8.48085L58.4126 8.0044L58.9427 7.5114L59.4869 7.00452L60.0454 6.48674L60.6178 5.96126L61.204 5.43158L61.8034 4.90148L62.4152 4.37502L63.0384 3.85651L63.672 3.35049L64.3143 2.86174L64.9638 2.39518L65.6184 1.95584L66.276 1.54881L66.9342 1.17914L67.5905 0.851765L68.2421 0.571417L68.886 0.342529L69.5195 0.169135L70.1396 0.0547796L70.7433 0.00242559L71.3278 0.014381L71.8904 0.0922325L72.4287 0.2368L72.9405 0.448108L73.4239 0.725383L73.8773 1.06706L74.2996 1.47084L74.69 1.93372L75.0482 2.45208L75.3741 3.02177L75.6682 3.63821L75.9312 4.29647L76.1643 4.99141L76.3688 5.71774L76.5464 6.47016L76.6991 7.24339L76.8288 8.0323L76.9378 8.83196L77.0282 9.63768L77.1026 10.4451L77.1632 11.25L77.2123 12.0488L77.2524 12.838L77.2857 13.6146L77.3145 14.3759L77.341 15.1195L77.3672 15.8433L77.3952 16.5455L77.4269 17.2246L77.4642 17.8794L77.509 18.5087L77.563 19.1116L77.628 19.6875L77.7056 20.2358L77.7975 20.7559L77.9053 21.2476L78.0308 21.7105L78.1755 22.1444L78.3412 22.549L78.5298 22.9242L78.743 23.2697L78.9828 23.5852L79.2514 23.8706L79.5502 24.1262L79.879 24.354L80.2377 24.5561L80.6259 24.7343L81.0435 24.8905L81.4902 25.0265L81.9659 25.1439L82.4702 25.2445L83.0029 25.3299L83.5634 25.4017L84.1514 25.4616L84.7661 25.5113L85.4067 25.5526L86.0724 25.5872L86.7619 25.6171L87.4739 25.644L88.2067 25.6701L88.9584 25.6973L89.7268 25.7278L90.5093 25.7638L91.3032 25.8077L92.1051 25.8616L92.9116 25.928L93.7188 26.0091L94.5224 26.1075L95.3179 26.2254L96.1004 26.365L96.8651 26.5285L97.6066 26.7178L98.3197 26.9348L98.9991 27.1809L99.6394 27.4576L100.236 27.7657L100.783 28.1058L101.278 28.4783L101.715 28.8829L102.091 29.3191L102.405 29.7859L102.653 30.2821L102.835 30.8059L102.95 31.3552L102.998 31.9279L102.982 32.5212L102.901 33.1325L102.761 33.7589L102.562 34.3974L102.31 35.045L102.008 35.699L101.662 36.3565L101.275 37.0148L100.853 37.6713L100.401 38.3239L99.9238 38.9705L99.4268 39.6091L98.9147 40.2383L98.3921 40.8566L97.8635 41.463L97.3331 42.0566L96.8048 42.6368L96.2824 43.2031L95.769 43.7552L95.2679 44.2932L94.7819 44.817L94.3136 45.327L93.8653 45.8235L93.4393 46.307L93.0373 46.778L92.6613 47.2372L92.313 47.6854L91.9938 48.1233L91.7052 48.5519L91.4487 48.972L91.2256 49.3848L91.0374 49.7911L90.8853 50.1921L90.7708 50.5889L90.6955 50.9827L90.6609 51.3748L90.6587 51.4996Z" fill="url(#paint0_linear_101_976)"/>
<defs>
<linearGradient id="paint0_linear_101_976" x1="-67.4056" y1="28.0071" x2="-106.927" y2="-67.1091" gradientUnits="userSpaceOnUse">
<stop stop-color="#9E29FA"/>
<stop offset="1" stop-color="#F0ED30"/>
</linearGradient>
</defs>
</svg>
