<svg width="71" height="70" viewBox="0 0 71 70" fill="none" xmlns="http://www.w3.org/2000/svg">
<path id="Periwinkle" fill-rule="evenodd" clip-rule="evenodd" d="M26.7475 4.57635C17.9718 -4.11608 3.98619 6.80505 10.2921 17.4261C13.3856 22.6365 11.4511 29.3763 6.06521 32.153C-4.91362 37.8131 1.15118 54.489 13.201 51.7738C19.1124 50.4418 24.9245 54.3643 25.901 60.3447C27.8914 72.5352 45.6253 71.9204 46.7666 59.6213C47.3265 53.5876 52.8531 49.2721 58.8424 50.1914C71.0514 52.0655 75.9467 35.0096 64.6023 30.1235C59.037 27.7265 56.6404 21.1369 59.3656 15.7247C64.9208 4.69243 50.2124 -5.23386 42.0598 4.04548C38.0603 8.59767 31.0526 8.84062 26.7475 4.57635ZM40.7527 39.4733C44.5496 36.5083 45.224 31.0268 42.2591 27.2299C39.2941 23.433 33.8126 22.7585 30.0157 25.7234C26.2188 28.6884 25.5443 34.1699 28.5093 37.9668C31.4742 41.7637 36.9557 42.4382 40.7527 39.4733Z" fill="#00D092"/>
</svg>
