<svg width="24" height="24" viewBox="0 0 24 24" fill="none" xmlns="http://www.w3.org/2000/svg">
<path d="M12.0009 14.17C9.87086 14.17 8.13086 12.44 8.13086 10.3C8.13086 8.16 9.87086 6.44 12.0009 6.44C14.1309 6.44 15.8709 8.17 15.8709 10.31C15.8709 12.45 14.1309 14.17 12.0009 14.17ZM12.0009 7.94C10.7009 7.94 9.63086 9 9.63086 10.31C9.63086 11.62 10.6909 12.68 12.0009 12.68C13.3109 12.68 14.3709 11.62 14.3709 10.31C14.3709 9 13.3009 7.94 12.0009 7.94Z" fill="#030A23"/>
<path d="M11.9997 22.76C10.5197 22.76 9.02969 22.2 7.86969 21.09C4.91969 18.25 1.65969 13.72 2.88969 8.33C3.99969 3.44 8.26969 1.25 11.9997 1.25C11.9997 1.25 11.9997 1.25 12.0097 1.25C15.7397 1.25 20.0097 3.44 21.1197 8.34C22.3397 13.73 19.0797 18.25 16.1297 21.09C14.9697 22.2 13.4797 22.76 11.9997 22.76ZM11.9997 2.75C9.08969 2.75 5.34969 4.3 4.35969 8.66C3.27969 13.37 6.23969 17.43 8.91969 20C10.6497 21.67 13.3597 21.67 15.0897 20C17.7597 17.43 20.7197 13.37 19.6597 8.66C18.6597 4.3 14.9097 2.75 11.9997 2.75Z" fill="#030A23"/>
</svg>
