<svg width="31" height="32" viewBox="0 0 31 32" fill="none" xmlns="http://www.w3.org/2000/svg">
<g id="Asset 1 1" clip-path="url(#clip0_114_2276)">
<g id="GRID SYMBOL ON LIGHT">
<g id="Group">
<g id="Group_2">
<path id="Vector" d="M10.2286 29.1796C13.8528 29.1796 16.7908 26.2414 16.7908 22.6169C16.7908 18.9924 13.8528 16.0542 10.2286 16.0542C6.60436 16.0542 3.66634 18.9924 3.66634 22.6169C3.66634 26.2414 6.60436 29.1796 10.2286 29.1796Z" fill="white"/>
<path id="Vector_2" d="M10.2286 18.8746C12.2916 18.8746 13.9707 20.5537 13.9707 22.6169C13.9707 24.6801 12.2916 26.3593 10.2286 26.3593C8.16554 26.3593 6.48647 24.6801 6.48647 22.6169C6.48647 20.5537 8.16554 18.8746 10.2286 18.8746ZM10.2286 13.2339C5.04712 13.2339 0.846191 17.4351 0.846191 22.6169C0.846191 27.7988 5.04712 32 10.2286 32C15.4101 32 19.611 27.7988 19.611 22.6169C19.611 17.4351 15.4101 13.2339 10.2286 13.2339Z" fill="#6987F1"/>
</g>
<g id="Group_3">
<path id="Vector_3" d="M21.6176 22.5629C25.2419 22.5629 28.1799 19.6247 28.1799 16.0002C28.1799 12.3757 25.2419 9.4375 21.6176 9.4375C17.9934 9.4375 15.0554 12.3757 15.0554 16.0002C15.0554 19.6247 17.9934 22.5629 21.6176 22.5629Z" fill="white"/>
<path id="Vector_4" d="M21.6176 12.2579C23.6807 12.2579 25.3597 13.9371 25.3597 16.0002C25.3597 18.0634 23.6807 19.7426 21.6176 19.7426C19.5546 19.7426 17.8755 18.0634 17.8755 16.0002C17.8755 13.9371 19.5546 12.2579 21.6176 12.2579ZM21.6176 6.61719C16.4362 6.61719 12.2352 10.8184 12.2352 16.0002C12.2352 21.1821 16.4362 25.3833 21.6176 25.3833C26.7991 25.3833 31 21.1821 31 16.0002C31 10.8184 26.7991 6.61719 21.6176 6.61719Z" fill="#6987F1"/>
</g>
<g id="Group_4">
<path id="Vector_5" d="M10.2286 15.9457C13.8528 15.9457 16.7908 13.0075 16.7908 9.38302C16.7908 5.75854 13.8528 2.82031 10.2286 2.82031C6.60436 2.82031 3.66634 5.75854 3.66634 9.38302C3.66634 13.0075 6.60436 15.9457 10.2286 15.9457Z" fill="white"/>
<path id="Vector_6" d="M10.2286 5.64068C12.2916 5.64068 13.9707 7.31986 13.9707 9.38305C13.9707 11.4462 12.2916 13.1254 10.2286 13.1254C8.16554 13.1254 6.48647 11.4462 6.48647 9.38305C6.48647 7.31986 8.16554 5.64068 10.2286 5.64068ZM10.2286 0C5.04712 0 0.846191 4.20122 0.846191 9.38305C0.846191 14.5649 5.04712 18.7661 10.2286 18.7661C15.4101 18.7661 19.611 14.5649 19.611 9.38305C19.611 4.20122 15.4101 0 10.2286 0Z" fill="#6987F1"/>
</g>
</g>
</g>
</g>
<defs>
<clipPath id="clip0_114_2276">
<rect width="30.1538" height="32" fill="white" transform="translate(0.846191)"/>
</clipPath>
</defs>
</svg>
