<svg width="32" height="32" viewBox="0 0 32 32" fill="none" xmlns="http://www.w3.org/2000/svg">
<g id="vuesax/outline/menu">
<g id="menu">
<path id="Vector" d="M28 10.3333H4C3.45333 10.3333 3 9.87992 3 9.33325C3 8.78659 3.45333 8.33325 4 8.33325H28C28.5467 8.33325 29 8.78659 29 9.33325C29 9.87992 28.5467 10.3333 28 10.3333Z" fill="#030A23"/>
<path id="Vector_2" d="M28 17H4C3.45333 17 3 16.5467 3 16C3 15.4533 3.45333 15 4 15H28C28.5467 15 29 15.4533 29 16C29 16.5467 28.5467 17 28 17Z" fill="#030A23"/>
<path id="Vector_3" d="M28 23.6667H4C3.45333 23.6667 3 23.2134 3 22.6667C3 22.1201 3.45333 21.6667 4 21.6667H28C28.5467 21.6667 29 22.1201 29 22.6667C29 23.2134 28.5467 23.6667 28 23.6667Z" fill="#030A23"/>
</g>
</g>
</svg>
