<svg width="24" height="24" viewBox="0 0 24 24" fill="none" xmlns="http://www.w3.org/2000/svg">
<g id="vuesax/outline/share">
<g id="share">
<path id="Vector" d="M20.6216 13.07C20.2416 13.07 19.9216 12.78 19.8716 12.4C19.6316 10.14 18.4116 8.08998 16.5316 6.78998C16.1916 6.54998 16.1116 6.08998 16.3416 5.74998C16.5816 5.40998 17.0516 5.32998 17.3816 5.55998C19.6216 7.10998 21.0616 9.54998 21.3516 12.24C21.3916 12.65 21.1016 13.02 20.6816 13.07C20.6716 13.07 20.6416 13.07 20.6216 13.07Z" fill="#292D32"/>
<path id="Vector_2" d="M3.49186 13.12C3.46186 13.12 3.44186 13.12 3.41186 13.12C3.00186 13.07 2.70186 12.7 2.74186 12.29C3.01186 9.60001 4.44186 7.17001 6.65186 5.60001C6.99186 5.36001 7.46186 5.44001 7.70186 5.78001C7.94186 6.12001 7.86186 6.59001 7.52186 6.83001C5.66186 8.14001 4.46186 10.19 4.23186 12.45C4.20186 12.83 3.87186 13.12 3.49186 13.12Z" fill="#292D32"/>
<path id="Vector_3" d="M12.06 22.61C10.58 22.61 9.16997 22.27 7.84997 21.61C7.47997 21.42 7.32997 20.97 7.51997 20.6C7.70997 20.23 8.15997 20.08 8.52997 20.27C10.69 21.36 13.29 21.38 15.47 20.33C15.84 20.15 16.29 20.31 16.47 20.68C16.65 21.05 16.49 21.5 16.12 21.68C14.84 22.3 13.48 22.61 12.06 22.61Z" fill="#292D32"/>
<path id="Vector_4" d="M12.0613 8.44C10.1113 8.44 8.53125 6.86 8.53125 4.91C8.53125 2.96 10.1113 1.38 12.0613 1.38C14.0113 1.38 15.5913 2.96 15.5913 4.91C15.5913 6.86 14.0013 8.44 12.0613 8.44ZM12.0613 2.89C10.9413 2.89 10.0312 3.8 10.0312 4.92C10.0312 6.04 10.9413 6.95 12.0613 6.95C13.1813 6.95 14.0913 6.04 14.0913 4.92C14.0913 3.8 13.1713 2.89 12.0613 2.89Z" fill="#292D32"/>
<path id="Vector_5" d="M4.83078 20.67C2.88078 20.67 1.30078 19.09 1.30078 17.14C1.30078 15.2 2.88078 13.61 4.83078 13.61C6.78078 13.61 8.36078 15.19 8.36078 17.14C8.36078 19.08 6.78078 20.67 4.83078 20.67ZM4.83078 15.11C3.71078 15.11 2.80078 16.02 2.80078 17.14C2.80078 18.26 3.71078 19.17 4.83078 19.17C5.95078 19.17 6.86078 18.26 6.86078 17.14C6.86078 16.02 5.95078 15.11 4.83078 15.11Z" fill="#292D32"/>
<path id="Vector_6" d="M19.1706 20.67C17.2206 20.67 15.6406 19.09 15.6406 17.14C15.6406 15.2 17.2206 13.61 19.1706 13.61C21.1206 13.61 22.7006 15.19 22.7006 17.14C22.6906 19.08 21.1106 20.67 19.1706 20.67ZM19.1706 15.11C18.0506 15.11 17.1406 16.02 17.1406 17.14C17.1406 18.26 18.0506 19.17 19.1706 19.17C20.2906 19.17 21.2006 18.26 21.2006 17.14C21.1906 16.02 20.2906 15.11 19.1706 15.11Z" fill="#292D32"/>
</g>
</g>
</svg>
