<svg width="96" height="96" viewBox="0 0 96 96" fill="none" xmlns="http://www.w3.org/2000/svg">
<g id="vuesax/bulk/tick-circle">
<g id="tick-circle">
<path id="Vector" d="M48 88C70.0914 88 88 70.0914 88 48C88 25.9086 70.0914 8 48 8C25.9086 8 8 25.9086 8 48C8 70.0914 25.9086 88 48 88Z" fill="#28A745"/>
<path id="Vector_2" d="M42.3217 62.3199C41.5217 62.3199 40.7617 61.9999 40.2017 61.4399L28.8817 50.1199C27.7217 48.9599 27.7217 47.0399 28.8817 45.8799C30.0417 44.7199 31.9617 44.7199 33.1217 45.8799L42.3217 55.0799L62.8817 34.5199C64.0417 33.3599 65.9617 33.3599 67.1217 34.5199C68.2817 35.6799 68.2817 37.5999 67.1217 38.7599L44.4417 61.4399C43.8817 61.9999 43.1217 62.3199 42.3217 62.3199Z" fill="white"/>
</g>
</g>
</svg>
