<svg width="32" height="32" viewBox="0 0 32 32" fill="none" xmlns="http://www.w3.org/2000/svg">
<g id="vuesax/outline/wallet-2">
<g id="wallet-2">
<path id="Vector" d="M17.333 13H9.33301C8.78634 13 8.33301 12.5467 8.33301 12C8.33301 11.4533 8.78634 11 9.33301 11H17.333C17.8797 11 18.333 11.4533 18.333 12C18.333 12.5467 17.8797 13 17.333 13Z" fill="#6987F1"/>
<path id="Vector_2" d="M25.3862 19.7332C23.3729 19.7332 21.6662 18.2399 21.5062 16.3199C21.3996 15.2132 21.7996 14.1333 22.5996 13.3466C23.2662 12.6533 24.2129 12.2666 25.2129 12.2666H27.9996C29.3196 12.3066 30.3329 13.3465 30.3329 14.6265V17.3733C30.3329 18.6533 29.3196 19.6932 28.0396 19.7332H25.3862ZM27.9595 14.2666H25.2262C24.7595 14.2666 24.3329 14.4399 24.0262 14.7599C23.6396 15.1333 23.4529 15.6399 23.5062 16.1466C23.5729 17.0266 24.4262 17.7332 25.3862 17.7332H27.9996C28.1729 17.7332 28.3329 17.5733 28.3329 17.3733V14.6265C28.3329 14.4265 28.1728 14.2799 27.9595 14.2666Z" fill="#6987F1"/>
<path id="Vector_3" d="M21.3337 28.3334H9.33366C4.74699 28.3334 1.66699 25.2534 1.66699 20.6667V11.3334C1.66699 7.22675 4.20029 4.25342 8.13363 3.76009C8.49363 3.70676 8.90699 3.66675 9.33366 3.66675H21.3337C21.6537 3.66675 22.067 3.68008 22.4937 3.74674C26.427 4.20008 29.0003 7.18675 29.0003 11.3334V13.2668C29.0003 13.8134 28.547 14.2668 28.0003 14.2668H25.227C24.7603 14.2668 24.3337 14.4401 24.027 14.7601L24.0137 14.7734C23.6403 15.1334 23.467 15.6267 23.507 16.1334C23.5737 17.0134 24.427 17.7201 25.387 17.7201H28.0003C28.547 17.7201 29.0003 18.1734 29.0003 18.7201V20.6534C29.0003 25.2534 25.9203 28.3334 21.3337 28.3334ZM9.33366 5.66675C9.01366 5.66675 8.70698 5.6934 8.40031 5.7334C5.46698 6.10673 3.66699 8.24008 3.66699 11.3334V20.6667C3.66699 24.1067 5.89366 26.3334 9.33366 26.3334H21.3337C24.7737 26.3334 27.0003 24.1067 27.0003 20.6667V19.7334H25.387C23.3736 19.7334 21.667 18.2401 21.507 16.3201C21.4003 15.2267 21.8003 14.1334 22.6003 13.3601C23.2937 12.6534 24.227 12.2668 25.227 12.2668H27.0003V11.3334C27.0003 8.21341 25.1736 6.06672 22.2136 5.72005C21.8936 5.66672 21.6137 5.66675 21.3337 5.66675H9.33366V5.66675Z" fill="#6987F1"/>
</g>
</g>
</svg>
