<svg width="72" height="72" viewBox="0 0 72 72" fill="none" xmlns="http://www.w3.org/2000/svg">
<path d="M53.2501 21.1499C52.5301 21.0299 51.7801 20.9999 51.0001 20.9999H21.0001C20.1601 20.9999 19.3501 21.0599 18.5701 21.1799C18.9901 20.3399 19.5901 19.56 20.3101 18.84L30.0601 9.06C34.1701 4.98 40.8301 4.98 44.9401 9.06L50.1901 14.3699C52.1101 16.2599 53.1301 18.6599 53.2501 21.1499Z" fill="#E6A23C"/>
<path d="M15 45C8.37 45 3 50.37 3 57C3 59.25 3.63 61.38 4.74 63.18C6.81 66.66 10.62 69 15 69C19.38 69 23.19 66.66 25.26 63.18C26.37 61.38 27 59.25 27 57C27 50.37 21.63 45 15 45ZM19.47 59.1899H17.25V61.53C17.25 62.76 16.23 63.78 15 63.78C13.77 63.78 12.75 62.76 12.75 61.53V59.1899H10.53C9.3 59.1899 8.28 58.1699 8.28 56.9399C8.28 55.7099 9.3 54.6899 10.53 54.6899H12.75V52.5601C12.75 51.3301 13.77 50.3101 15 50.3101C16.23 50.3101 17.25 51.3301 17.25 52.5601V54.6899H19.47C20.7 54.6899 21.72 55.7099 21.72 56.9399C21.72 58.1699 20.73 59.1899 19.47 59.1899Z" fill="#E6A23C"/>
<path opacity="0.4" d="M66 36V51C66 60 60 66 51 66H22.89C23.82 65.22 24.63 64.26 25.26 63.18C26.37 61.38 27 59.25 27 57C27 50.37 21.63 45 15 45C11.4 45 8.19 46.59 6 49.08V36C6 27.84 10.92 22.14 18.57 21.18C19.35 21.06 20.16 21 21 21H51C51.78 21 52.53 21.03 53.25 21.15C60.99 22.05 66 27.78 66 36Z" fill="#E6A23C"/>
<path d="M66 37.5H57C53.7 37.5 51 40.2 51 43.5C51 46.8 53.7 49.5 57 49.5H66" fill="#E6A23C"/>
</svg>
