<svg width="61" height="64" viewBox="0 0 61 64" fill="none" xmlns="http://www.w3.org/2000/svg">
<g id="Asset 1 1" clip-path="url(#clip0_162_5105)">
<g id="GRID SYMBOL ON LIGHT">
<g id="Group">
<g id="Group_2">
<path id="Vector" d="M18.8229 37.7491C22.9279 37.7491 26.2689 41.1075 26.2689 45.2339C26.2689 49.3602 22.9279 52.7186 18.8229 52.7186C14.7178 52.7186 11.3768 49.3602 11.3768 45.2339C11.3768 41.1075 14.7178 37.7491 18.8229 37.7491ZM18.8229 26.4678C8.5128 26.4678 0.153809 34.8702 0.153809 45.2339C0.153809 55.5975 8.5128 64 18.8229 64C29.1329 64 37.4919 55.5975 37.4919 45.2339C37.4919 34.8702 29.1329 26.4678 18.8229 26.4678Z" fill="#6987F1"/>
</g>
<g id="Group_3">
<path id="Vector_2" d="M41.4847 24.5152C45.5898 24.5152 48.9308 27.8736 48.9308 32C48.9308 36.1264 45.5898 39.4847 41.4847 39.4847C37.3797 39.4847 34.0387 36.1264 34.0387 32C34.0387 27.8736 37.3797 24.5152 41.4847 24.5152ZM41.4847 13.2339C31.1747 13.2339 22.8157 21.6363 22.8157 32C22.8157 42.3636 31.1747 50.7661 41.4847 50.7661C51.7948 50.7661 60.1538 42.3636 60.1538 32C60.1538 21.6363 51.7948 13.2339 41.4847 13.2339Z" fill="#6987F1"/>
</g>
<g id="Group_4">
<path id="Vector_3" d="M18.8229 11.2814C22.9279 11.2814 26.2689 14.6397 26.2689 18.7661C26.2689 22.8925 22.9279 26.2508 18.8229 26.2508C14.7178 26.2508 11.3768 22.8925 11.3768 18.7661C11.3768 14.6397 14.7178 11.2814 18.8229 11.2814ZM18.8229 0C8.5128 0 0.153809 8.40244 0.153809 18.7661C0.153809 29.1298 8.5128 37.5322 18.8229 37.5322C29.1329 37.5322 37.4919 29.1298 37.4919 18.7661C37.4919 8.40244 29.1329 0 18.8229 0Z" fill="#6987F1"/>
</g>
</g>
</g>
</g>
<defs>
<clipPath id="clip0_162_5105">
<rect width="60" height="64" fill="white" transform="translate(0.153809)"/>
</clipPath>
</defs>
</svg>
