<svg width="272" height="159" viewBox="0 0 272 159" fill="none" xmlns="http://www.w3.org/2000/svg">
<mask id="mask0_1976_4872" style="mask-type:alpha" maskUnits="userSpaceOnUse" x="0" y="0" width="272" height="159">
<rect width="272" height="159" fill="#F6F6F6"/>
</mask>
<g mask="url(#mask0_1976_4872)">
<rect x="-177.556" y="-31.2148" width="541.167" height="493.583" fill="#F6F6F6"/>
<rect y="-33.165" width="430.667" height="562.84" fill="#F6F6F6"/>
</g>
<g clip-path="url(#clip0_1976_4872)">
<path d="M123.536 86.2882C128.052 86.2882 131.727 89.9614 131.727 94.4746C131.727 98.9879 128.052 102.661 123.536 102.661C119.02 102.661 115.345 98.9879 115.345 94.4746C115.345 89.9614 119.02 86.2882 123.536 86.2882ZM123.536 73.9492C112.195 73.9492 103 83.1394 103 94.4746C103 105.81 112.195 115 123.536 115C134.877 115 144.072 105.81 144.072 94.4746C144.072 83.1394 134.877 73.9492 123.536 73.9492Z" fill="#959EA6"/>
<path d="M148.464 71.8136C152.98 71.8136 156.655 75.4868 156.655 80C156.655 84.5132 152.98 88.1865 148.464 88.1865C143.949 88.1865 140.273 84.5132 140.273 80C140.273 75.4868 143.949 71.8136 148.464 71.8136ZM148.464 59.4746C137.123 59.4746 127.928 68.6648 127.928 80C127.928 91.3353 137.123 100.525 148.464 100.525C159.805 100.525 169 91.3353 169 80C169 68.6648 159.805 59.4746 148.464 59.4746Z" fill="#959EA6"/>
<path d="M123.536 57.339C128.052 57.339 131.727 61.0122 131.727 65.5254C131.727 70.0386 128.052 73.7119 123.536 73.7119C119.02 73.7119 115.345 70.0386 115.345 65.5254C115.345 61.0122 119.02 57.339 123.536 57.339ZM123.536 45C112.195 45 103 54.1902 103 65.5254C103 76.8607 112.195 86.0508 123.536 86.0508C134.877 86.0508 144.072 76.8607 144.072 65.5254C144.072 54.1902 134.877 45 123.536 45Z" fill="#959EA6"/>
</g>
<defs>
<clipPath id="clip0_1976_4872">
<rect width="66" height="70" fill="white" transform="translate(103 45)"/>
</clipPath>
</defs>
</svg>
